<svg version="1.1" id="Layer_1" xmlns="http://www.w3.org/2000/svg" xmlns:xlink="http://www.w3.org/1999/xlink" x="0px" y="0px"
	 width="100%" viewBox="0 0 960 960" enable-background="new 0 0 960 960" xml:space="preserve">
<path fill="#FDFDFD" opacity="1.000000" stroke="none" 
	d="
M604.000000,961.000000 
	C402.666656,961.000000 201.833328,961.000000 1.000000,961.000000 
	C1.000000,641.000000 1.000000,321.000000 1.000000,1.000000 
	C321.000000,1.000000 641.000000,1.000000 961.000000,1.000000 
	C961.000000,321.000000 961.000000,641.000000 961.000000,961.000000 
	C842.166687,961.000000 723.333313,961.000000 604.000000,961.000000 
M167.246567,406.223724 
	C167.246567,406.223724 167.159653,406.679932 166.689362,407.079865 
	C158.629852,418.978516 149.615036,430.029968 138.461227,439.219482 
	C118.974533,455.274292 97.446251,463.649506 71.880760,457.178650 
	C70.788155,456.902130 69.564514,457.143311 67.323891,457.143311 
	C81.531502,463.248138 95.634445,464.762634 109.291862,461.447815 
	C139.867065,454.026794 160.966003,433.904236 179.125137,408.903046 
	C180.485931,406.795044 181.846725,404.687073 183.757797,402.227142 
	C184.142654,401.475128 184.527512,400.723114 185.421631,399.526276 
	C186.631683,397.393829 187.841721,395.261383 189.612503,392.826843 
	C190.268631,391.545685 190.924759,390.264526 191.779480,388.741913 
	C191.779480,388.741913 191.828598,388.433167 192.301254,388.029175 
	C192.732651,387.093628 193.164047,386.158081 194.085236,384.801300 
	C195.158752,382.442444 196.232269,380.083557 197.852249,377.270203 
	C198.253204,376.181152 198.654144,375.092102 199.531433,373.526947 
	C199.658051,373.105652 199.784653,372.684357 200.341415,371.863220 
	C200.703323,370.963928 201.065231,370.064667 201.906723,368.711731 
	C202.424561,367.530396 202.942398,366.349091 203.731339,364.549286 
	C204.431671,366.231812 204.865036,367.265137 205.292389,368.300964 
	C210.744263,381.515106 215.698410,394.961212 221.731842,407.904236 
	C249.009003,466.419556 287.539062,516.095276 339.322083,555.002075 
	C387.954987,591.541992 442.902771,613.207153 502.704407,623.056824 
	C556.794861,631.965881 610.532043,630.764404 663.723450,616.859009 
	C703.496399,606.461426 739.960938,589.196777 772.028442,563.216003 
	C822.007019,522.723816 851.978149,470.059418 866.142700,407.852600 
	C867.528259,401.767242 868.740601,395.642395 870.120361,389.124908 
	C874.895691,392.694305 879.246277,395.946228 883.879944,399.755768 
	C884.588867,400.158264 885.297852,400.560760 886.167419,401.250580 
	C886.167419,401.250580 886.493469,401.296021 886.874695,401.861206 
	C894.960632,407.469330 903.297791,412.596497 912.878418,415.367340 
	C904.774902,409.436798 896.671326,403.506287 888.461609,397.525024 
	C888.461609,397.525024 888.392700,397.429718 888.101257,396.909088 
	C887.450623,396.475861 886.800049,396.042664 885.800720,395.078430 
	C879.204651,388.698151 872.608521,382.317841 865.708618,375.643677 
	C865.371948,376.888824 865.185120,377.670624 864.949585,378.437439 
	C859.289429,396.863556 854.807617,415.756256 847.739258,433.625702 
	C825.930908,488.759033 790.136108,532.671692 738.815918,563.021790 
	C690.161377,591.795471 636.822449,603.663208 580.782654,604.576294 
	C538.012329,605.273193 496.104248,599.244324 455.248596,586.580261 
	C408.710876,572.154785 366.784363,549.259033 329.929413,517.235474 
	C303.364624,494.153107 280.629883,467.772644 261.217621,438.446503 
	C240.049408,406.467712 223.248474,372.419647 211.889328,335.744415 
	C209.535614,328.144958 207.209686,320.536896 204.639755,312.181152 
	C204.071747,313.529083 203.761826,314.072327 203.608322,314.656677 
	C197.521652,337.826324 190.951080,360.833130 180.304611,383.055756 
	C179.561615,384.705444 178.818619,386.355133 177.787796,388.214417 
	C177.787796,388.214417 177.818375,388.569122 177.278046,388.965149 
	C176.856598,389.977692 176.435150,390.990204 175.746765,392.170929 
	C175.746765,392.170929 175.812515,392.479492 175.289505,392.807648 
	C174.955948,393.543335 174.622375,394.279022 173.818115,395.544403 
	C172.443802,397.993958 171.069489,400.443542 169.157791,403.227661 
	C168.652832,404.145691 168.147873,405.063690 167.246567,406.223724 
M226.736130,536.118774 
	C228.834900,532.602295 230.933670,529.085815 232.779510,525.993103 
	C231.979050,524.539429 230.512009,522.662231 229.874603,520.536377 
	C228.874039,517.199402 226.518173,516.344971 223.742798,516.939087 
	C218.783890,518.000549 212.583557,513.728271 208.896454,520.291199 
	C208.818481,520.429993 208.859314,520.636719 208.778671,520.772583 
	C207.642120,522.688660 206.494110,524.597900 205.647598,526.010376 
	C206.677200,527.555054 208.010651,529.621155 209.412125,531.640076 
	C210.905685,533.791687 212.463593,535.898621 213.653732,538.532349 
	C213.312027,538.751953 212.970322,538.971558 211.899887,539.018372 
	C206.146423,537.007935 203.637634,538.264526 202.044754,544.263794 
	C199.959061,552.119080 198.038574,560.018188 195.933533,568.347412 
	C195.326263,567.622131 195.039139,567.419373 194.948654,567.150452 
	C193.197205,561.946167 191.478607,556.730835 189.733337,551.524414 
	C186.981934,543.316711 181.906250,540.980042 173.910797,544.429016 
	C170.305405,545.984314 167.075409,546.184082 163.505753,544.064026 
	C158.379395,541.019470 151.181793,543.698486 149.127777,549.425232 
	C146.602982,556.464539 144.527237,563.664185 142.206192,570.777771 
	C141.231491,573.765076 142.439331,575.761475 145.125580,576.708801 
	C148.104584,577.759338 149.740173,576.285217 150.525070,573.304626 
	C151.232040,570.619995 152.343933,568.041992 153.277237,565.416992 
	C154.003693,565.646790 154.730148,565.876648 155.456604,566.106445 
	C151.449402,580.517273 147.442200,594.928040 143.270126,609.931702 
	C147.532074,609.931702 151.589355,609.931702 155.863098,609.931702 
	C156.615158,615.538086 157.293732,620.596741 158.031921,626.099731 
	C150.664505,626.099731 143.846298,626.081543 137.028229,626.103516 
	C122.600914,626.149963 115.259583,618.831604 114.968300,604.429993 
	C114.284691,570.630188 113.487579,536.832581 112.910637,502.164642 
	C112.783867,499.514374 112.657104,496.864105 112.530334,494.213806 
	C112.184311,494.236633 111.838295,494.259430 111.492271,494.282257 
	C111.492271,497.208923 111.492271,500.135620 111.297966,503.972046 
	C110.583069,537.262451 109.761452,570.550964 109.195198,603.843933 
	C108.879547,622.402588 119.212746,632.720154 137.782318,632.631348 
	C211.196411,632.280151 284.611664,632.020569 358.023010,631.347229 
	C378.232605,631.161926 398.515778,631.581970 418.637604,628.416870 
	C356.521027,627.494629 294.404419,626.572327 231.810547,625.643005 
	C231.810547,605.028381 231.810547,584.512329 231.810547,563.996277 
	C233.261749,566.139648 233.326981,568.755493 234.484131,570.732117 
	C235.541458,572.538208 237.835464,574.877197 239.486771,574.803040 
	C242.438797,574.670654 242.948334,571.967102 242.207870,569.092957 
	C240.050339,560.718140 238.077606,552.296021 235.981216,543.905212 
	C234.951843,539.785156 232.414078,537.630798 227.656937,537.563171 
	C227.288895,537.318359 226.920853,537.073486 226.736130,536.118774 
M334.593750,412.962402 
	C340.847626,422.581177 347.754791,431.850098 353.151245,441.928009 
	C357.566986,450.174408 363.029266,454.198181 372.338318,452.236206 
	C372.794769,452.140015 373.245270,452.015625 373.635437,451.919861 
	C373.635437,426.939362 373.635437,402.072968 373.635437,377.309509 
	C368.840393,377.309509 364.421539,377.309509 359.638123,377.309509 
	C359.638123,393.274811 359.638123,408.985901 359.638123,426.249420 
	C357.824707,423.625549 356.808044,422.227325 355.866180,420.780426 
	C347.066559,407.262543 338.317474,393.711365 329.430481,380.251221 
	C328.549805,378.917358 326.933807,377.386261 325.513336,377.224152 
	C321.788574,376.799133 317.983154,377.080719 314.003479,377.080719 
	C314.003479,402.348358 314.003479,427.082153 314.003479,451.971588 
	C318.674744,451.971588 323.201569,451.971588 328.262451,451.971588 
	C328.262451,435.940308 328.262451,420.292084 328.262451,403.472290 
	C330.706329,407.154694 332.439087,409.765564 334.593750,412.962402 
M805.403198,377.052216 
	C802.784973,377.052216 800.166748,377.052216 796.980652,377.052216 
	C796.980652,386.738892 796.980652,395.971100 796.980652,405.030029 
	C788.339600,405.030029 780.281128,405.030029 771.806763,405.030029 
	C771.806763,395.527863 771.806763,386.451935 771.806763,377.215607 
	C766.931519,377.215607 762.487427,377.215607 757.757324,377.215607 
	C757.757324,402.224945 757.757324,427.091583 757.757324,451.969238 
	C762.632874,451.969238 767.195801,451.969238 772.124390,451.969238 
	C772.124390,441.017914 772.124390,430.411560 772.124390,419.564972 
	C780.554626,419.564972 788.611816,419.564972 797.006226,419.564972 
	C797.006226,430.490814 797.006226,441.111023 797.006226,452.022766 
	C801.925415,452.022766 806.507080,452.022766 811.209839,452.022766 
	C811.209839,426.959930 811.209839,402.115143 811.209839,377.052216 
	C809.321777,377.052216 807.831299,377.052216 805.403198,377.052216 
M599.331787,413.499786 
	C599.331787,426.284363 599.331787,439.068939 599.331787,451.964172 
	C604.305115,451.964172 608.873047,451.964172 614.010010,451.964172 
	C614.010010,441.433899 614.010010,431.258179 614.010010,421.082458 
	C615.527771,422.003693 616.243225,423.046112 616.836304,424.154053 
	C621.312378,432.516632 625.705566,440.924530 630.286438,449.229065 
	C630.985718,450.496826 632.454773,452.085175 633.677368,452.185059 
	C638.059509,452.543121 642.488647,452.325439 647.513245,452.325439 
	C641.417480,440.807404 635.760071,430.117676 629.999512,419.233002 
	C631.520142,418.363708 632.802917,417.634521 634.081848,416.898529 
	C641.573730,412.587097 645.097107,404.865509 643.804932,395.594513 
	C642.496826,386.210297 637.310425,379.572449 628.405640,378.334656 
	C618.958496,377.021515 609.315552,377.116547 599.331787,376.573395 
	C599.331787,389.227081 599.331787,400.863403 599.331787,413.499786 
M442.485107,315.049377 
	C443.603760,318.002228 444.615875,321.002502 445.897339,323.882904 
	C446.361969,324.927307 447.425507,326.398376 448.292847,326.453094 
	C452.524963,326.720062 456.783112,326.573883 461.740143,326.573883 
	C451.895905,300.995239 442.318359,276.109558 432.734985,251.208710 
	C429.360443,251.208710 426.340240,251.462418 423.380768,251.146667 
	C419.375427,250.719345 417.631470,252.475479 416.270386,256.123627 
	C410.055695,272.780670 403.517670,289.316864 397.136719,305.912201 
	C394.549103,312.641937 392.065674,319.411682 389.476074,326.320007 
	C403.664703,327.512756 403.664612,327.512726 408.637878,315.338440 
	C408.763672,315.030518 408.811829,314.613770 409.041687,314.438049 
	C410.540314,313.292542 412.044434,311.300781 413.610718,311.240173 
	C421.752136,310.925201 429.918274,310.957672 438.061371,311.258820 
	C439.456879,311.310425 440.782684,313.246033 442.485107,315.049377 
M549.662109,311.110535 
	C557.309326,311.110535 564.956604,311.110535 572.700745,311.110535 
	C574.433838,315.521576 575.963684,319.743988 577.785583,323.836365 
	C578.281189,324.949768 579.604553,326.372101 580.637756,326.449127 
	C584.692200,326.751373 588.782410,326.572784 593.350708,326.572784 
	C592.763000,324.723755 592.435303,323.474243 591.974670,322.275879 
	C584.096741,301.782135 576.250732,281.275879 568.290771,260.813965 
	C564.397095,250.804825 564.300293,250.968613 553.613281,251.152390 
	C550.734924,251.201874 549.702759,252.312881 548.754578,254.833466 
	C542.897888,270.403046 536.835938,285.895416 530.851440,301.416962 
	C527.702759,309.583527 524.572632,317.757263 521.271179,326.352020 
	C522.952087,326.492950 524.056763,326.661835 525.162109,326.666473 
	C536.139160,326.712585 536.468811,326.814423 539.911316,316.457001 
	C541.537292,311.564697 544.261536,310.394653 549.662109,311.110535 
M529.000793,415.461182 
	C524.379333,427.518463 519.757812,439.575745 514.890991,452.273010 
	C517.074951,452.273010 518.681458,452.259216 520.287781,452.275299 
	C529.572937,452.368195 529.572937,452.370575 532.990051,444.114044 
	C535.983643,436.880829 535.983643,436.880798 544.470215,436.880798 
	C547.302551,436.880798 550.135864,436.834473 552.967041,436.891510 
	C557.442261,436.981659 562.892456,435.634155 566.102966,437.714600 
	C569.041992,439.619141 569.417236,445.326050 571.229309,449.214294 
	C571.798584,450.435883 573.299561,451.929291 574.482666,452.030609 
	C578.543335,452.378387 582.652100,452.164154 587.263611,452.164154 
	C578.705933,429.891144 570.389099,408.182800 562.021057,386.494202 
	C558.349976,376.979340 558.297180,377.202637 548.210327,376.938934 
	C544.671448,376.846436 543.286987,378.175018 542.159546,381.212128 
	C537.993958,392.432983 533.599609,403.568909 529.000793,415.461182 
M431.283569,384.094971 
	C430.229584,378.503510 427.143372,375.825562 421.269806,377.030731 
	C420.470520,377.194733 419.592041,377.160767 418.778534,377.035156 
	C415.265717,376.492737 413.568787,377.948151 412.291016,381.351227 
	C404.342102,402.521942 396.125641,423.592133 388.008331,444.699677 
	C387.100708,447.059845 386.258698,449.445251 385.334808,451.958893 
	C399.500061,453.175446 399.500427,453.175598 404.500671,440.921509 
	C404.815186,440.150787 404.941101,439.209015 405.471313,438.643768 
	C406.163757,437.905609 407.166138,436.979736 408.045502,436.968872 
	C417.648987,436.850220 427.254486,436.894531 436.720734,436.894531 
	C438.481567,441.502197 439.943176,445.569122 441.617584,449.546478 
	C442.063507,450.605713 443.116394,452.125671 443.967499,452.177734 
	C448.329681,452.444702 452.717010,452.301239 457.485229,452.301239 
	C448.651794,429.208466 440.153595,406.992065 431.283569,384.094971 
M310.318329,282.963165 
	C308.280670,302.731262 316.977051,318.883911 333.127136,325.328217 
	C350.827148,332.390991 371.413788,327.554108 382.314026,313.414551 
	C379.083435,310.515839 375.798676,307.568512 372.480377,304.591095 
	C355.284424,317.452515 341.333069,318.115356 330.668823,306.412933 
	C322.436768,297.379486 322.171295,281.504730 330.101105,272.466736 
	C340.938599,260.114716 354.777710,260.474640 372.905334,273.561676 
	C376.055511,270.479004 379.205383,267.396637 382.547455,264.126129 
	C370.537079,251.521667 355.983521,246.534531 339.109436,251.016357 
	C323.329071,255.207687 313.380524,265.621246 310.318329,282.963165 
M673.416748,429.499146 
	C673.416748,426.043030 673.416748,422.586884 673.416748,418.530151 
	C682.416626,418.530151 691.161316,418.530151 699.968018,418.530151 
	C699.968018,413.642242 699.968018,409.360107 699.968018,404.490112 
	C691.045532,404.490112 682.316162,404.490112 673.619446,404.490112 
	C673.619446,399.792145 673.619446,395.686981 673.619446,390.955719 
	C682.578186,390.955719 691.309082,390.955719 699.948608,390.955719 
	C699.948608,386.043304 699.948608,381.763519 699.948608,377.312714 
	C686.317688,377.312714 672.928528,377.312714 659.320557,377.312714 
	C659.320557,402.331512 659.320557,427.083435 659.320557,452.065918 
	C672.965210,452.065918 686.386841,452.065918 699.900879,452.065918 
	C699.900879,447.401886 699.900879,442.986969 699.900879,438.036896 
	C690.931885,438.036896 682.208252,438.036896 673.416687,438.036896 
	C673.416687,435.167297 673.416687,432.837402 673.416748,429.499146 
M484.557648,266.035461 
	C486.232361,265.104858 488.311829,263.026184 489.509644,263.448456 
	C493.970795,265.021149 498.142426,267.415131 503.027191,269.795471 
	C505.488312,267.570709 508.765533,264.608246 512.019348,261.666931 
	C504.295898,251.968292 496.769775,248.462921 486.895111,249.743805 
	C472.626221,251.594650 465.341980,266.408691 473.032684,278.503326 
	C475.400421,282.226868 478.693329,285.445496 481.920807,288.519196 
	C486.612579,292.987396 491.766571,296.970398 496.455566,301.441254 
	C499.276123,304.130585 500.682922,307.624573 498.110474,311.297150 
	C495.599823,314.881470 491.764923,315.795013 487.931366,314.281281 
	C485.440491,313.297729 483.352051,311.139557 481.292450,309.276428 
	C480.017670,308.123230 479.134888,306.536682 478.017975,305.068207 
	C473.911438,307.562225 470.151428,309.845795 466.104034,312.303894 
	C467.999146,315.109283 469.337067,317.417389 470.986298,319.476044 
	C479.236664,329.774567 496.392395,331.712982 505.951630,323.502533 
	C516.284790,314.627380 516.377014,301.146759 505.682709,290.271515 
	C500.222656,284.719055 493.815063,280.104919 488.263000,274.633148 
	C486.263458,272.662537 485.514130,269.423309 484.557648,266.035461 
M486.322113,397.558990 
	C478.433746,415.588715 470.545380,433.618439 462.465942,452.084900 
	C478.111755,452.084900 493.015320,452.084900 507.952148,452.084900 
	C507.952148,447.484741 507.952148,443.121674 507.952148,438.233826 
	C499.747009,438.233826 491.893890,438.233826 483.515045,438.233826 
	C492.492615,417.551483 501.188568,397.517975 509.984436,377.254272 
	C494.607483,377.254272 479.842133,377.254272 464.978729,377.254272 
	C464.978729,382.026123 464.978729,386.576691 464.978729,391.438263 
	C472.981903,391.438263 480.573151,391.438263 488.685638,391.438263 
	C487.910492,393.541504 487.300781,395.195770 486.322113,397.558990 
M711.657471,377.027252 
	C709.903870,377.027252 708.150330,377.027252 706.414062,377.027252 
	C706.414062,382.135132 706.414062,386.514801 706.414062,391.347687 
	C710.833557,391.347687 714.921387,391.347687 719.519897,391.347687 
	C719.519897,411.838165 719.519897,431.872192 719.519897,452.044098 
	C724.623718,452.044098 729.194397,452.044098 734.116211,452.044098 
	C734.116211,431.684570 734.116211,411.603180 734.116211,391.177429 
	C738.762634,391.177429 743.059265,391.177429 747.448364,391.177429 
	C747.448364,386.284607 747.448364,381.746368 747.448364,377.028900 
	C735.571228,377.028900 724.096558,377.028900 711.657471,377.027252 
M236.540833,474.912476 
	C215.898880,447.981628 177.524216,449.945648 161.477859,478.282684 
	C162.970795,477.641998 164.319199,476.778687 165.361832,475.636322 
	C171.069107,469.383362 177.687500,464.478973 185.853271,462.002930 
	C210.602646,454.498383 237.209717,471.205750 241.977768,497.375854 
	C243.181351,503.981812 243.600754,510.730652 244.499786,518.436096 
	C249.119370,504.954651 245.815506,487.470856 236.540833,474.912476 
M167.732681,518.841736 
	C161.066406,519.146912 158.825668,524.896423 155.551193,528.306763 
	C156.209442,530.282715 156.790482,531.682739 157.140427,533.138306 
	C158.493683,538.766968 162.956390,542.700928 168.295166,542.873840 
	C174.232788,543.066223 179.202606,539.259521 180.770462,533.435425 
	C181.239624,531.692688 181.975357,530.021729 182.647858,528.154297 
	C178.694534,524.144897 175.834702,518.221558 167.732681,518.841736 
M792.182983,710.891663 
	C792.182983,703.104492 792.182983,695.317261 792.182983,685.815125 
	C790.039673,687.945496 788.944824,689.033691 787.823181,690.148560 
	C780.745483,685.518555 773.923096,685.550781 768.872742,690.338379 
	C764.410217,694.568665 763.270813,702.264465 766.916199,707.250916 
	C768.595642,709.548157 771.206726,712.340454 773.669800,712.638184 
	C778.451721,713.216187 783.427490,712.190125 788.641724,711.805176 
	C789.070740,714.788025 787.577881,718.003784 783.891113,719.593506 
	C779.353210,721.550171 774.827881,721.235840 770.734131,717.949463 
	C769.407959,716.884949 767.734009,716.253601 766.219116,715.424133 
	C769.352783,722.643860 775.266296,725.153625 782.197388,723.620850 
	C788.676025,722.188110 791.255066,719.106262 792.182983,710.891663 
M642.896790,688.350342 
	C635.718567,685.139404 629.471069,686.580994 625.231506,692.426453 
	C621.499939,697.571472 621.838928,705.075256 626.525879,709.804138 
	C628.408630,711.703735 631.187073,713.766418 633.615967,713.840210 
	C637.803894,713.967468 642.037354,712.597168 646.612793,711.791687 
	C646.836365,711.981750 647.810181,712.809509 648.783997,713.637329 
	C649.266479,712.898132 650.163574,712.162170 650.169373,711.419250 
	C650.258484,700.029297 650.231445,688.638550 650.231445,677.247925 
	C649.684509,677.047485 649.137512,676.847046 648.590576,676.646606 
	C647.979858,677.665710 646.948669,678.642761 646.841614,679.712280 
	C646.577881,682.346069 646.779053,685.023193 646.717834,687.681213 
	C646.655396,690.388000 645.454102,690.412048 642.896790,688.350342 
M807.046326,713.535583 
	C812.395447,715.345154 817.138000,713.985535 820.975525,710.922363 
	C822.158325,711.997070 823.115723,712.867004 824.073242,713.737000 
	C824.585449,712.522705 825.512146,711.317871 825.540283,710.092407 
	C825.688782,703.619019 825.670410,697.139404 825.555542,690.664673 
	C825.535522,689.537964 824.777649,688.424316 824.360596,687.304626 
	C823.276184,688.126221 822.191772,688.947815 821.052795,689.810730 
	C819.151306,688.961548 816.870300,687.463684 814.381531,686.924194 
	C807.808167,685.499207 801.458313,689.122620 799.094666,695.221802 
	C796.424866,702.111328 799.191345,708.974182 807.046326,713.535583 
M658.423096,693.054016 
	C657.783081,695.276367 656.810791,697.463196 656.568787,699.728088 
	C655.974060,705.293030 659.338928,710.891724 664.261658,713.136108 
	C669.372681,715.466309 676.326294,714.413269 679.992554,710.422241 
	C681.024536,709.298828 681.241943,707.427063 681.832947,705.898560 
	C680.459290,706.518799 678.817505,706.846252 677.761414,707.813293 
	C674.357727,710.930298 670.571228,711.965820 666.316040,710.226929 
	C662.473083,708.656677 660.530029,705.610168 660.344421,700.870239 
	C668.176697,700.870239 675.741089,700.870239 683.271667,700.870239 
	C683.529724,694.442017 680.805359,689.899353 675.693359,687.690002 
	C669.739441,685.116821 664.107483,686.700317 658.423096,693.054016 
M225.430557,700.491089 
	C225.430084,697.505371 225.569336,694.510193 225.369019,691.537903 
	C225.271774,690.094727 224.538956,688.694458 224.093903,687.274780 
	C222.994431,688.218750 221.894974,689.162781 220.776077,690.123413 
	C213.727707,685.164734 206.769730,685.436584 201.672607,690.929077 
	C196.892776,696.079651 196.594864,703.552917 200.946671,709.139893 
	C205.730072,715.280945 212.299286,715.818542 220.901382,711.034302 
	C222.025070,711.986938 223.018372,712.828979 224.011673,713.671021 
	C224.485123,712.424011 225.273453,711.200195 225.367569,709.925171 
	C225.574631,707.120605 225.430954,704.290222 225.430557,700.491089 
M351.115540,688.602234 
	C343.590088,685.094177 337.360870,686.375854 332.966858,692.336426 
	C328.971710,697.755920 329.448334,705.112976 334.266296,710.155701 
	C340.037750,716.196472 347.693970,715.287964 353.325195,711.004395 
	C354.416595,711.926758 355.429138,712.782471 356.441620,713.638184 
	C356.942047,712.385803 357.847229,711.142395 357.874969,709.879639 
	C358.017456,703.389221 358.006683,696.892212 357.858215,690.401917 
	C357.833801,689.334839 356.858490,688.289490 356.322662,687.234131 
	C355.632660,687.945374 355.055542,688.901611 354.216095,689.288391 
	C353.572571,689.584839 352.598022,689.162537 351.115540,688.602234 
M300.791595,690.338501 
	C299.957672,689.819031 299.127838,689.292908 298.289276,688.781067 
	C292.863434,685.469910 286.595642,685.922607 282.119232,689.945374 
	C277.359619,694.222595 276.045868,701.079163 278.891846,706.789185 
	C281.612793,712.248291 287.300049,715.283203 293.382721,714.022095 
	C296.003174,713.478699 298.427460,711.989136 300.448242,711.137207 
	C301.584778,712.044434 302.586823,712.844299 303.588837,713.644226 
	C304.047974,712.901672 304.897125,712.163818 304.906219,711.415771 
	C305.002869,703.458862 304.966217,695.500366 304.966217,687.542358 
	C304.534943,687.307861 304.103699,687.073425 303.672424,686.838989 
	C302.886597,687.791565 302.100739,688.744141 300.791595,690.338501 
M723.041199,704.506226 
	C723.044617,706.668884 722.842529,708.860718 723.144043,710.980957 
	C723.281311,711.946350 724.414307,712.770203 725.095764,713.658203 
	C725.620911,712.776001 726.557251,711.912781 726.598999,711.008179 
	C726.767456,707.356384 726.645386,703.691833 726.658081,700.032043 
	C726.674683,695.262451 726.463989,690.487366 721.635437,687.844177 
	C716.952637,685.280945 712.661377,686.761536 708.679321,689.759460 
	C708.514038,689.883850 708.063049,689.628723 707.237610,689.425354 
	C707.237610,685.495483 707.237610,681.432068 707.237610,677.368713 
	C706.656067,677.133484 706.074463,676.898254 705.492920,676.662964 
	C704.853577,677.896973 703.679138,679.122559 703.659668,680.366272 
	C703.503601,690.345215 703.507019,700.328369 703.641418,710.307800 
	C703.656677,711.440308 704.783447,712.557739 705.394836,713.682190 
	C705.963318,712.515259 706.939819,711.377747 707.026184,710.176147 
	C707.323853,706.034912 706.991028,701.831909 707.497559,697.726379 
	C708.116760,692.707581 712.253113,689.541565 716.847717,689.931519 
	C721.032043,690.286560 722.907288,692.890808 723.032898,698.571228 
	C723.069641,700.234009 723.039368,701.898193 723.041199,704.506226 
M534.570923,686.905579 
	C526.792236,686.181274 521.923462,688.739563 519.141235,695.012939 
	C516.777283,700.343262 518.255554,706.987732 522.694336,710.982849 
	C527.587036,715.386536 533.656494,715.281189 539.009827,712.100159 
	C541.166748,712.784546 542.662231,713.743347 543.881897,713.470276 
	C544.654480,713.297302 545.458191,711.299805 545.488098,710.101624 
	C545.645630,703.785583 545.632751,697.462036 545.502502,691.144775 
	C545.475647,689.842712 544.697754,688.556091 544.266052,687.262390 
	C543.216919,688.266235 542.167725,689.270081 541.214111,690.182556 
	C539.370850,689.200378 537.348083,688.122559 534.570923,686.905579 
M739.110474,688.465881 
	C738.103821,689.319702 736.995728,690.079895 736.107239,691.042786 
	C730.840881,696.750000 731.373901,705.702332 737.247375,711.063721 
	C742.687805,716.029724 751.740051,715.272522 756.793152,709.428833 
	C760.834412,704.755310 761.122437,697.534607 757.473633,692.366882 
	C753.465149,686.689819 747.316895,685.218445 739.110474,688.465881 
M584.540833,689.924805 
	C577.337830,685.034363 569.954773,685.605042 564.950134,691.439026 
	C560.584290,696.528381 560.625916,704.680725 565.043335,709.694458 
	C569.961792,715.276855 578.777100,715.968262 584.286499,711.203796 
	C590.511902,705.820068 590.821350,697.656067 584.540833,689.924805 
M436.964020,703.537781 
	C438.051605,697.195007 436.219696,691.905273 430.631805,688.577637 
	C425.899475,685.759399 420.789673,685.722290 416.034332,688.800232 
	C410.891968,692.128662 409.097504,697.044861 409.978149,702.993347 
	C410.833221,708.769348 415.534332,713.435913 421.099762,714.134460 
	C428.742432,715.093750 433.331177,712.223999 436.964020,703.537781 
M462.907715,710.097534 
	C463.451416,711.288818 463.995148,712.480164 464.538910,713.671448 
	C465.175171,712.581421 466.331207,711.504150 466.358459,710.399048 
	C466.481323,705.408203 466.597839,700.379944 466.127655,695.420898 
	C465.471832,688.504028 459.703644,684.945679 453.156250,687.196289 
	C451.180969,687.875305 449.427948,689.201050 448.074219,689.952393 
	C446.817841,688.954407 445.740875,688.098938 444.663879,687.243530 
	C444.204865,688.494263 443.375916,689.737244 443.349213,690.997131 
	C443.215332,697.325989 443.183044,703.662903 443.385040,709.988281 
	C443.425171,711.244629 444.645569,712.463257 445.321747,713.699280 
	C445.883087,712.499023 446.847473,711.326477 446.932220,710.093384 
	C447.217438,705.944458 446.866211,701.734863 447.364441,697.621887 
	C447.967621,692.642700 452.090851,689.591248 456.813507,689.989075 
	C460.863647,690.330200 462.816071,693.091431 462.890625,698.694580 
	C462.937195,702.193298 462.904694,705.693115 462.907715,710.097534 
M383.058716,706.026001 
	C380.429901,699.833374 381.182556,695.566162 385.493317,692.223145 
	C389.528442,689.093933 395.150116,689.262878 399.847290,692.405823 
	C400.953827,693.146179 402.521912,693.196716 403.877655,693.564575 
	C399.845642,686.885925 393.195984,685.106079 386.854187,687.577271 
	C381.056580,689.836365 377.685822,694.890991 377.821899,701.121277 
	C377.946747,706.837341 381.828064,711.861877 387.484711,713.630127 
	C394.103943,715.699280 400.357666,713.729675 403.923218,707.689026 
	C402.460938,707.560669 400.984741,707.714478 399.912750,708.454224 
	C393.995850,712.536499 388.775970,712.042664 383.058716,706.026001 
M507.881165,708.650146 
	C499.422272,713.746887 489.964630,709.725952 489.662079,700.876343 
	C489.518463,696.675049 491.296722,693.372864 494.986816,691.407532 
	C499.082336,689.226196 503.224945,689.332092 507.279785,691.842346 
	C508.660126,692.696899 510.278198,693.167419 511.787628,693.813416 
	C508.769897,687.258667 502.677063,685.241577 496.177124,687.155518 
	C490.269775,688.894958 486.169128,694.262451 485.979706,700.503479 
	C485.805756,706.234436 489.933258,711.855469 495.634796,713.652283 
	C502.261688,715.740723 508.512451,713.794250 513.346802,707.081848 
	C510.901276,707.623962 509.682739,707.894104 507.881165,708.650146 
M188.508469,697.812012 
	C188.524384,702.301025 188.451645,706.793640 188.636414,711.275696 
	C188.670410,712.100403 189.748032,712.882202 190.343933,713.683777 
	C190.899185,713.007751 191.940369,712.326721 191.933426,711.656494 
	C191.873322,705.854797 192.177628,699.968933 191.290039,694.277039 
	C190.219879,687.414368 183.324142,684.567688 177.099899,687.818237 
	C175.703751,688.547424 174.442276,689.534424 173.843063,689.927551 
	C172.210770,688.708252 171.018875,687.817932 168.966049,686.284485 
	C168.966049,695.405090 168.905106,703.037048 169.039810,710.665527 
	C169.057510,711.668091 170.076096,712.652954 170.631134,713.646057 
	C171.245728,712.695679 172.323837,711.778503 172.394699,710.789185 
	C172.702805,706.487305 172.492706,702.143127 172.899567,697.854980 
	C173.342072,693.191284 177.236099,689.866882 181.630524,689.884094 
	C186.298538,689.902344 187.954971,692.799561 188.508469,697.812012 
M245.772034,697.341675 
	C244.720215,704.631165 247.540665,710.458679 253.378845,713.058533 
	C259.811829,715.923218 267.132233,714.154846 271.480347,707.916016 
	C269.775238,707.837402 268.072021,708.074585 266.781067,708.932373 
	C260.833374,712.884094 252.954041,711.165588 250.080948,705.136658 
	C247.937531,700.638855 248.965088,695.656433 252.701935,692.428284 
	C256.320312,689.302551 262.254456,689.160278 266.665588,691.920044 
	C268.050415,692.786438 269.697266,693.234070 271.224182,693.873413 
	C271.403534,693.432922 271.582886,692.992493 271.762238,692.552063 
	C264.760376,682.859558 251.302887,684.955444 245.772034,697.341675 
M138.466553,695.549316 
	C138.610580,698.866882 138.458176,702.230347 138.963150,705.492004 
	C139.885162,711.447632 143.875381,714.360168 150.330078,714.274902 
	C156.380493,714.194946 160.320282,711.229126 161.047867,705.381836 
	C161.660629,700.457214 161.621109,695.435852 161.590622,690.458984 
	C161.583893,689.360046 160.398926,688.268188 159.756546,687.173096 
	C159.166367,688.337830 158.142761,689.474731 158.066040,690.672302 
	C157.821671,694.487610 158.001007,698.327759 157.884155,702.154175 
	C157.715958,707.662537 155.042587,710.741943 150.442795,710.912964 
	C145.438278,711.099060 142.368881,708.133972 142.147537,702.475098 
	C141.953598,697.516663 142.107040,692.544739 142.107040,687.578735 
	C141.647491,687.334473 141.187958,687.090210 140.728409,686.845947 
	C139.980896,687.770325 138.825455,688.599121 138.581070,689.641541 
	C138.210739,691.221069 138.473999,692.949097 138.466553,695.549316 
M318.187958,690.005005 
	C320.440521,690.543274 322.693115,691.081543 324.945709,691.619812 
	C322.779907,686.822693 319.208313,685.617004 315.658844,687.235962 
	C313.654358,688.150330 311.082550,691.343262 311.394043,693.022339 
	C311.917206,695.842346 314.383209,698.398193 316.343811,700.811768 
	C317.224854,701.896362 319.264404,702.082458 320.049255,703.191956 
	C321.055176,704.613953 322.216309,706.952942 321.674591,708.166687 
	C321.081787,709.494873 318.658813,710.573853 316.966980,710.677795 
	C315.404083,710.773804 313.753113,709.435364 311.352966,708.383362 
	C311.264587,709.572327 310.878693,711.621338 311.141693,711.708313 
	C314.024170,712.661682 317.191437,714.259766 319.905762,713.736084 
	C322.046906,713.322876 324.722046,710.430237 325.214905,708.207581 
	C325.701263,706.014221 324.188507,702.965393 322.716553,700.882874 
	C321.577667,699.271545 319.097778,698.648132 317.302673,697.452454 
	C313.409058,694.859070 313.435638,693.177490 318.187958,690.005005 
M835.544617,689.098145 
	C834.758362,688.478882 833.972107,687.859680 833.185791,687.240479 
	C832.730408,688.147522 831.895203,689.048340 831.880249,689.962585 
	C831.768982,696.778564 831.736755,703.599243 831.904724,710.412903 
	C831.931763,711.511292 833.076843,712.582031 833.705017,713.665588 
	C834.220093,712.616516 835.110962,711.592773 835.183655,710.513977 
	C835.462708,706.372192 835.241760,702.188660 835.661072,698.066833 
	C836.076355,693.985291 837.101135,690.073425 842.560242,690.073792 
	C843.793335,690.073853 845.026489,689.504089 846.259583,689.196655 
	C845.451355,688.175415 844.643127,687.154114 843.834900,686.132874 
	C841.322937,687.229126 838.810974,688.325378 835.544617,689.098145 
M593.965027,697.541382 
	C593.966858,701.847778 593.836487,706.161072 594.059875,710.455933 
	C594.118774,711.588867 595.270325,712.664917 595.920227,713.767090 
	C596.517090,712.615906 597.543091,711.496643 597.631409,710.307678 
	C597.912964,706.518005 597.690857,702.691650 597.953918,698.899597 
	C598.263855,694.432190 599.040466,690.199036 605.022644,690.023254 
	C605.804443,690.000366 606.545837,688.606750 607.305969,687.848022 
	C607.016846,687.336365 606.727661,686.824707 606.438538,686.313049 
	C603.772156,687.062134 601.105835,687.811218 598.289917,688.602295 
	C597.542236,688.278931 596.388794,687.780090 595.235352,687.281250 
	C594.816345,688.389282 594.153320,689.471497 594.032471,690.611145 
	C593.824097,692.576904 593.952942,694.578491 593.965027,697.541382 
M554.649780,713.611450 
	C555.104187,712.691711 555.944946,711.775696 555.953796,710.851685 
	C556.052673,700.575867 556.066101,690.298462 555.958679,680.022949 
	C555.948303,679.031799 554.972839,678.050842 554.445435,677.065125 
	C553.831665,678.153015 552.698486,679.234436 552.685059,680.329651 
	C552.560486,690.438232 552.596985,700.549438 552.693481,710.658875 
	C552.702942,711.644653 553.429138,712.623535 554.649780,713.611450 
z"/>
<path fill="#080808" opacity="1.000000" stroke="none" 
	d="
M197.305801,377.724701 
	C196.232269,380.083557 195.158752,382.442444 193.414276,384.998718 
	C192.438416,386.275146 192.133514,387.354156 191.828598,388.433167 
	C191.828598,388.433167 191.779480,388.741913 191.334198,388.625366 
	C185.730728,388.241241 189.491776,391.520355 189.051758,393.128937 
	C187.841721,395.261383 186.631683,397.393829 184.811295,399.829224 
	C183.869812,400.947845 183.538681,401.763458 183.207535,402.579102 
	C181.846725,404.687073 180.485931,406.795044 178.504913,409.000305 
	C176.033890,410.074890 174.183105,411.052216 172.004181,412.202850 
	C171.395203,410.622437 170.697296,408.811218 170.253769,406.828796 
	C170.237167,405.402771 169.966187,404.147949 169.695190,402.893097 
	C171.069489,400.443542 172.443802,397.993958 174.386520,395.197357 
	C175.240784,394.060028 175.526642,393.269745 175.812500,392.479492 
	C175.812515,392.479492 175.746765,392.170929 176.132294,392.188019 
	C177.606110,392.205109 178.694382,392.205109 180.043167,392.205109 
	C179.112289,390.683777 178.465332,389.626434 177.818375,388.569122 
	C177.818375,388.569122 177.787796,388.214417 178.233185,388.149292 
	C179.367416,388.450989 180.056290,388.817780 181.842514,389.768860 
	C181.437454,386.872894 181.142700,384.765564 180.847961,382.658264 
	C190.951080,360.833130 197.521652,337.826324 203.608322,314.656677 
	C203.761826,314.072327 204.071747,313.529083 204.639755,312.181152 
	C207.209686,320.536896 209.535614,328.144958 211.889328,335.744415 
	C223.248474,372.419647 240.049408,406.467712 261.217621,438.446503 
	C280.629883,467.772644 303.364624,494.153107 329.929413,517.235474 
	C366.784363,549.259033 408.710876,572.154785 455.248596,586.580261 
	C496.104248,599.244324 538.012329,605.273193 580.782654,604.576294 
	C636.822449,603.663208 690.161377,591.795471 738.815918,563.021790 
	C790.136108,532.671692 825.930908,488.759033 847.739258,433.625702 
	C854.807617,415.756256 859.289429,396.863556 864.949585,378.437439 
	C865.185120,377.670624 865.371948,376.888824 865.708618,375.643677 
	C872.608521,382.317841 879.204651,388.698151 885.980530,395.720734 
	C886.904480,396.718597 887.648560,397.074158 888.392700,397.429718 
	C888.392700,397.429718 888.461609,397.525024 888.367676,397.970154 
	C887.680298,399.375549 887.086914,400.335785 886.493469,401.296021 
	C886.493469,401.296021 886.167419,401.250580 886.038818,400.753967 
	C885.139099,399.904297 884.367981,399.551239 883.596924,399.198181 
	C879.246277,395.946228 874.895691,392.694305 870.120361,389.124908 
	C868.740601,395.642395 867.528259,401.767242 866.142700,407.852600 
	C851.978149,470.059418 822.007019,522.723816 772.028442,563.216003 
	C739.960938,589.196777 703.496399,606.461426 663.723450,616.859009 
	C610.532043,630.764404 556.794861,631.965881 502.704407,623.056824 
	C442.902771,613.207153 387.954987,591.541992 339.322083,555.002075 
	C287.539062,516.095276 249.009003,466.419556 221.731842,407.904236 
	C215.698410,394.961212 210.744263,381.515106 205.292389,368.300964 
	C204.865036,367.265137 204.431671,366.231812 203.731339,364.549286 
	C202.942398,366.349091 202.424561,367.530396 201.277710,368.922791 
	C199.918762,369.647858 199.188843,370.161865 198.458923,370.675873 
	C198.943024,371.204926 199.427139,371.734009 199.911255,372.263062 
	C199.784653,372.684357 199.658051,373.105652 198.898071,373.846252 
	C197.945068,375.351959 197.625443,376.538330 197.305801,377.724701 
M174.126404,403.780060 
	C174.236404,403.893219 174.331085,404.064056 174.461914,404.098877 
	C174.546844,404.121490 174.779190,403.949921 174.783371,403.857971 
	C174.812271,403.221283 174.798599,402.582642 174.798599,401.944641 
	C174.627960,401.941956 174.457306,401.939270 174.286667,401.936584 
	C174.203720,402.376526 174.120789,402.816437 174.126404,403.780060 
M191.584320,362.515411 
	C191.584320,362.515411 191.476593,362.579468 191.584320,362.515411 
M190.412659,368.482941 
	C190.412659,368.482941 190.523041,368.416107 190.412659,368.482941 
M195.484283,369.594971 
	C195.484283,369.594971 195.413788,369.478729 195.484283,369.594971 
z"/>
<path fill="#0C0C0C" opacity="1.000000" stroke="none" 
	d="
M112.736404,503.034119 
	C113.487579,536.832581 114.284691,570.630188 114.968300,604.429993 
	C115.259583,618.831604 122.600914,626.149963 137.028229,626.103516 
	C143.846298,626.081543 150.664505,626.099731 158.031921,626.099731 
	C157.293732,620.596741 156.615158,615.538086 155.863098,609.931702 
	C151.589355,609.931702 147.532074,609.931702 143.270126,609.931702 
	C147.442200,594.928040 151.449402,580.517273 155.456604,566.106445 
	C154.730148,565.876648 154.003693,565.646790 153.277237,565.416992 
	C152.343933,568.041992 151.232040,570.619995 150.525070,573.304626 
	C149.740173,576.285217 148.104584,577.759338 145.125580,576.708801 
	C142.439331,575.761475 141.231491,573.765076 142.206192,570.777771 
	C144.527237,563.664185 146.602982,556.464539 149.127777,549.425232 
	C151.181793,543.698486 158.379395,541.019470 163.505753,544.064026 
	C167.075409,546.184082 170.305405,545.984314 173.910797,544.429016 
	C181.906250,540.980042 186.981934,543.316711 189.733337,551.524414 
	C191.478607,556.730835 193.197205,561.946167 194.948654,567.150452 
	C195.039139,567.419373 195.326263,567.622131 195.933533,568.347412 
	C198.038574,560.018188 199.959061,552.119080 202.044754,544.263794 
	C203.637634,538.264526 206.146423,537.007935 212.481934,539.405640 
	C218.573105,544.059875 223.304703,541.281677 227.996704,538.144836 
	C232.414078,537.630798 234.951843,539.785156 235.981216,543.905212 
	C238.077606,552.296021 240.050339,560.718140 242.207870,569.092957 
	C242.948334,571.967102 242.438797,574.670654 239.486771,574.803040 
	C237.835464,574.877197 235.541458,572.538208 234.484131,570.732117 
	C233.326981,568.755493 233.261749,566.139648 231.810547,563.996277 
	C231.810547,584.512329 231.810547,605.028381 231.810547,625.643005 
	C294.404419,626.572327 356.521027,627.494629 418.637604,628.416870 
	C398.515778,631.581970 378.232605,631.161926 358.023010,631.347229 
	C284.611664,632.020569 211.196411,632.280151 137.782318,632.631348 
	C119.212746,632.720154 108.879547,622.402588 109.195198,603.843933 
	C109.761452,570.550964 110.583069,537.262451 111.600098,503.572021 
	C112.187607,503.170258 112.465660,503.124329 112.736404,503.034119 
M193.619400,609.665649 
	C190.009796,609.665649 186.400192,609.665649 182.529083,609.665649 
	C181.788254,615.384033 181.120285,620.539917 180.448151,625.727905 
	C189.283615,625.727905 197.527252,625.727905 206.454773,625.727905 
	C206.454773,603.681458 206.454773,581.960327 206.454773,559.777466 
	C205.013077,565.191895 203.560928,570.239990 202.343079,575.343933 
	C201.315643,579.649780 198.661026,580.649231 194.555649,580.281799 
	C190.850082,579.950073 189.403183,577.635132 188.352676,574.735291 
	C186.602478,569.904114 184.988174,565.023682 183.316650,560.163940 
	C182.503372,561.540527 182.261993,562.721008 182.540222,563.762756 
	C185.794601,575.947876 189.158005,588.103821 192.416702,600.287842 
	C193.209366,603.251648 193.725510,606.289307 193.619400,609.665649 
M216.851501,602.477234 
	C216.851501,610.239990 216.851501,618.002686 216.851501,625.795776 
	C218.247269,625.795776 219.818161,625.795776 221.831482,625.795776 
	C220.666138,611.751099 221.764755,597.873596 219.947327,584.193787 
	C219.233902,584.207214 218.520493,584.220642 217.807068,584.234070 
	C217.492157,589.985474 217.177246,595.736877 216.851501,602.477234 
M168.054031,616.586853 
	C168.054031,619.695618 168.054031,622.804382 168.054031,625.913147 
	C168.562744,625.882141 169.071457,625.851074 169.580170,625.820068 
	C169.580170,620.627197 169.580170,615.434326 169.580170,610.241455 
	C169.079590,610.229309 168.579025,610.217163 168.078445,610.205017 
	C168.078445,612.021362 168.078445,613.837708 168.054031,616.586853 
M153.494919,564.736877 
	C153.894699,564.753784 154.294464,564.770691 154.694244,564.787598 
	C154.691605,564.376892 154.688965,563.966125 154.686325,563.555420 
	C154.321213,563.657349 153.956100,563.759216 153.494919,564.736877 
z"/>
<path fill="#070707" opacity="1.000000" stroke="none" 
	d="
M334.382812,412.669403 
	C332.439087,409.765564 330.706329,407.154694 328.262451,403.472290 
	C328.262451,420.292084 328.262451,435.940308 328.262451,451.971588 
	C323.201569,451.971588 318.674744,451.971588 314.003479,451.971588 
	C314.003479,427.082153 314.003479,402.348358 314.003479,377.080719 
	C317.983154,377.080719 321.788574,376.799133 325.513336,377.224152 
	C326.933807,377.386261 328.549805,378.917358 329.430481,380.251221 
	C338.317474,393.711365 347.066559,407.262543 355.866180,420.780426 
	C356.808044,422.227325 357.824707,423.625549 359.638123,426.249420 
	C359.638123,408.985901 359.638123,393.274811 359.638123,377.309509 
	C364.421539,377.309509 368.840393,377.309509 373.635437,377.309509 
	C373.635437,402.072968 373.635437,426.939362 373.635437,451.919861 
	C373.245270,452.015625 372.794769,452.140015 372.338318,452.236206 
	C363.029266,454.198181 357.566986,450.174408 353.151245,441.928009 
	C347.754791,431.850098 340.847626,422.581177 334.382812,412.669403 
z"/>
<path fill="#0A0A0A" opacity="1.000000" stroke="none" 
	d="
M805.871948,377.052216 
	C807.831299,377.052216 809.321777,377.052216 811.209839,377.052216 
	C811.209839,402.115143 811.209839,426.959930 811.209839,452.022766 
	C806.507080,452.022766 801.925415,452.022766 797.006226,452.022766 
	C797.006226,441.111023 797.006226,430.490814 797.006226,419.564972 
	C788.611816,419.564972 780.554626,419.564972 772.124390,419.564972 
	C772.124390,430.411560 772.124390,441.017914 772.124390,451.969238 
	C767.195801,451.969238 762.632874,451.969238 757.757324,451.969238 
	C757.757324,427.091583 757.757324,402.224945 757.757324,377.215607 
	C762.487427,377.215607 766.931519,377.215607 771.806763,377.215607 
	C771.806763,386.451935 771.806763,395.527863 771.806763,405.030029 
	C780.281128,405.030029 788.339600,405.030029 796.980652,405.030029 
	C796.980652,395.971100 796.980652,386.738892 796.980652,377.052216 
	C800.166748,377.052216 802.784973,377.052216 805.871948,377.052216 
z"/>
<path fill="#0C0C0C" opacity="1.000000" stroke="none" 
	d="
M599.331787,412.999756 
	C599.331787,400.863403 599.331787,389.227081 599.331787,376.573395 
	C609.315552,377.116547 618.958496,377.021515 628.405640,378.334656 
	C637.310425,379.572449 642.496826,386.210297 643.804932,395.594513 
	C645.097107,404.865509 641.573730,412.587097 634.081848,416.898529 
	C632.802917,417.634521 631.520142,418.363708 629.999512,419.233002 
	C635.760071,430.117676 641.417480,440.807404 647.513245,452.325439 
	C642.488647,452.325439 638.059509,452.543121 633.677368,452.185059 
	C632.454773,452.085175 630.985718,450.496826 630.286438,449.229065 
	C625.705566,440.924530 621.312378,432.516632 616.836304,424.154053 
	C616.243225,423.046112 615.527771,422.003693 614.010010,421.082458 
	C614.010010,431.258179 614.010010,441.433899 614.010010,451.964172 
	C608.873047,451.964172 604.305115,451.964172 599.331787,451.964172 
	C599.331787,439.068939 599.331787,426.284363 599.331787,412.999756 
M630.012878,400.206238 
	C630.964600,392.227783 624.063049,389.778168 614.077087,391.569427 
	C614.077087,396.437286 614.077087,401.301086 614.077087,406.625244 
	C620.000671,405.637817 626.714905,408.587708 630.012878,400.206238 
z"/>
<path fill="#0B0B0B" opacity="1.000000" stroke="none" 
	d="
M442.312897,314.680359 
	C440.782684,313.246033 439.456879,311.310425 438.061371,311.258820 
	C429.918274,310.957672 421.752136,310.925201 413.610718,311.240173 
	C412.044434,311.300781 410.540314,313.292542 409.041687,314.438049 
	C408.811829,314.613770 408.763672,315.030518 408.637878,315.338440 
	C403.664612,327.512726 403.664703,327.512756 389.476074,326.320007 
	C392.065674,319.411682 394.549103,312.641937 397.136719,305.912201 
	C403.517670,289.316864 410.055695,272.780670 416.270386,256.123627 
	C417.631470,252.475479 419.375427,250.719345 423.380768,251.146667 
	C426.340240,251.462418 429.360443,251.208710 432.734985,251.208710 
	C442.318359,276.109558 451.895905,300.995239 461.740143,326.573883 
	C456.783112,326.573883 452.524963,326.720062 448.292847,326.453094 
	C447.425507,326.398376 446.361969,324.927307 445.897339,323.882904 
	C444.615875,321.002502 443.603760,318.002228 442.312897,314.680359 
M431.982422,287.502533 
	C429.957489,282.429810 427.932526,277.357117 425.564514,271.424957 
	C422.044189,280.476929 418.935303,288.471008 415.660217,296.892365 
	C422.440033,296.892365 428.643738,296.892365 435.432190,296.892365 
	C434.267181,293.759674 433.242493,291.004242 431.982422,287.502533 
z"/>
<path fill="#0B0B0B" opacity="1.000000" stroke="none" 
	d="
M549.188049,311.110535 
	C544.261536,310.394653 541.537292,311.564697 539.911316,316.457001 
	C536.468811,326.814423 536.139160,326.712585 525.162109,326.666473 
	C524.056763,326.661835 522.952087,326.492950 521.271179,326.352020 
	C524.572632,317.757263 527.702759,309.583527 530.851440,301.416962 
	C536.835938,285.895416 542.897888,270.403046 548.754578,254.833466 
	C549.702759,252.312881 550.734924,251.201874 553.613281,251.152390 
	C564.300293,250.968613 564.397095,250.804825 568.290771,260.813965 
	C576.250732,281.275879 584.096741,301.782135 591.974670,322.275879 
	C592.435303,323.474243 592.763000,324.723755 593.350708,326.572784 
	C588.782410,326.572784 584.692200,326.751373 580.637756,326.449127 
	C579.604553,326.372101 578.281189,324.949768 577.785583,323.836365 
	C575.963684,319.743988 574.433838,315.521576 572.700745,311.110535 
	C564.956604,311.110535 557.309326,311.110535 549.188049,311.110535 
M562.294861,297.157166 
	C563.836426,297.057983 565.377930,296.958832 567.492615,296.822784 
	C564.145996,288.305695 561.048523,280.422852 557.492065,271.371826 
	C553.893921,280.549591 550.778809,288.495239 547.383789,297.154694 
	C552.519104,297.154694 556.931213,297.154694 562.294861,297.157166 
z"/>
<path fill="#090909" opacity="1.000000" stroke="none" 
	d="
M529.146057,415.098999 
	C533.599609,403.568909 537.993958,392.432983 542.159546,381.212128 
	C543.286987,378.175018 544.671448,376.846436 548.210327,376.938934 
	C558.297180,377.202637 558.349976,376.979340 562.021057,386.494202 
	C570.389099,408.182800 578.705933,429.891144 587.263611,452.164154 
	C582.652100,452.164154 578.543335,452.378387 574.482666,452.030609 
	C573.299561,451.929291 571.798584,450.435883 571.229309,449.214294 
	C569.417236,445.326050 569.041992,439.619141 566.102966,437.714600 
	C562.892456,435.634155 557.442261,436.981659 552.967041,436.891510 
	C550.135864,436.834473 547.302551,436.880798 544.470215,436.880798 
	C535.983643,436.880798 535.983643,436.880829 532.990051,444.114044 
	C529.572937,452.370575 529.572937,452.368195 520.287781,452.275299 
	C518.681458,452.259216 517.074951,452.273010 514.890991,452.273010 
	C519.757812,439.575745 524.379333,427.518463 529.146057,415.098999 
M558.312073,415.157043 
	C556.089050,409.492401 553.866028,403.827759 551.194397,397.019958 
	C547.673340,406.110229 544.546753,414.182098 541.249084,422.695618 
	C548.220581,422.695618 554.407227,422.695618 561.125244,422.695618 
	C560.189148,420.162048 559.397400,418.019043 558.312073,415.157043 
z"/>
<path fill="#090909" opacity="1.000000" stroke="none" 
	d="
M431.469482,384.435303 
	C440.153595,406.992065 448.651794,429.208466 457.485229,452.301239 
	C452.717010,452.301239 448.329681,452.444702 443.967499,452.177734 
	C443.116394,452.125671 442.063507,450.605713 441.617584,449.546478 
	C439.943176,445.569122 438.481567,441.502197 436.720734,436.894531 
	C427.254486,436.894531 417.648987,436.850220 408.045502,436.968872 
	C407.166138,436.979736 406.163757,437.905609 405.471313,438.643768 
	C404.941101,439.209015 404.815186,440.150787 404.500671,440.921509 
	C399.500427,453.175598 399.500061,453.175446 385.334808,451.958893 
	C386.258698,449.445251 387.100708,447.059845 388.008331,444.699677 
	C396.125641,423.592133 404.342102,402.521942 412.291016,381.351227 
	C413.568787,377.948151 415.265717,376.492737 418.778534,377.035156 
	C419.592041,377.160767 420.470520,377.194733 421.269806,377.030731 
	C427.143372,375.825562 430.229584,378.503510 431.469482,384.435303 
M417.650513,422.908203 
	C422.030243,422.908203 426.410004,422.908203 431.487885,422.908203 
	C428.039673,414.030792 424.937500,406.044281 421.454895,397.078339 
	C419.409332,402.200470 417.790558,406.181183 416.229034,410.184204 
	C414.637390,414.264526 413.102112,418.366821 411.371368,422.907471 
	C413.730652,422.907471 415.217804,422.907471 417.650513,422.908203 
z"/>
<path fill="#0B0B0B" opacity="1.000000" stroke="none" 
	d="
M310.369873,282.518311 
	C313.380524,265.621246 323.329071,255.207687 339.109436,251.016357 
	C355.983521,246.534531 370.537079,251.521667 382.547455,264.126129 
	C379.205383,267.396637 376.055511,270.479004 372.905334,273.561676 
	C354.777710,260.474640 340.938599,260.114716 330.101105,272.466736 
	C322.171295,281.504730 322.436768,297.379486 330.668823,306.412933 
	C341.333069,318.115356 355.284424,317.452515 372.480377,304.591095 
	C375.798676,307.568512 379.083435,310.515839 382.314026,313.414551 
	C371.413788,327.554108 350.827148,332.390991 333.127136,325.328217 
	C316.977051,318.883911 308.280670,302.731262 310.369873,282.518311 
z"/>
<path fill="#070707" opacity="1.000000" stroke="none" 
	d="
M673.416748,430.003326 
	C673.416687,432.837402 673.416687,435.167297 673.416687,438.036896 
	C682.208252,438.036896 690.931885,438.036896 699.900879,438.036896 
	C699.900879,442.986969 699.900879,447.401886 699.900879,452.065918 
	C686.386841,452.065918 672.965210,452.065918 659.320557,452.065918 
	C659.320557,427.083435 659.320557,402.331512 659.320557,377.312714 
	C672.928528,377.312714 686.317688,377.312714 699.948608,377.312714 
	C699.948608,381.763519 699.948608,386.043304 699.948608,390.955719 
	C691.309082,390.955719 682.578186,390.955719 673.619446,390.955719 
	C673.619446,395.686981 673.619446,399.792145 673.619446,404.490112 
	C682.316162,404.490112 691.045532,404.490112 699.968018,404.490112 
	C699.968018,409.360107 699.968018,413.642242 699.968018,418.530151 
	C691.161316,418.530151 682.416626,418.530151 673.416748,418.530151 
	C673.416748,422.586884 673.416748,426.043030 673.416748,430.003326 
z"/>
<path fill="#0C0C0C" opacity="1.000000" stroke="none" 
	d="
M484.375946,266.399231 
	C485.514130,269.423309 486.263458,272.662537 488.263000,274.633148 
	C493.815063,280.104919 500.222656,284.719055 505.682709,290.271515 
	C516.377014,301.146759 516.284790,314.627380 505.951630,323.502533 
	C496.392395,331.712982 479.236664,329.774567 470.986298,319.476044 
	C469.337067,317.417389 467.999146,315.109283 466.104034,312.303894 
	C470.151428,309.845795 473.911438,307.562225 478.017975,305.068207 
	C479.134888,306.536682 480.017670,308.123230 481.292450,309.276428 
	C483.352051,311.139557 485.440491,313.297729 487.931366,314.281281 
	C491.764923,315.795013 495.599823,314.881470 498.110474,311.297150 
	C500.682922,307.624573 499.276123,304.130585 496.455566,301.441254 
	C491.766571,296.970398 486.612579,292.987396 481.920807,288.519196 
	C478.693329,285.445496 475.400421,282.226868 473.032684,278.503326 
	C465.341980,266.408691 472.626221,251.594650 486.895111,249.743805 
	C496.769775,248.462921 504.295898,251.968292 512.019348,261.666931 
	C508.765533,264.608246 505.488312,267.570709 503.027191,269.795471 
	C498.142426,267.415131 493.970795,265.021149 489.509644,263.448456 
	C488.311829,263.026184 486.232361,265.104858 484.375946,266.399231 
z"/>
<path fill="#080808" opacity="1.000000" stroke="none" 
	d="
M486.506592,397.204529 
	C487.300781,395.195770 487.910492,393.541504 488.685638,391.438263 
	C480.573151,391.438263 472.981903,391.438263 464.978729,391.438263 
	C464.978729,386.576691 464.978729,382.026123 464.978729,377.254272 
	C479.842133,377.254272 494.607483,377.254272 509.984436,377.254272 
	C501.188568,397.517975 492.492615,417.551483 483.515045,438.233826 
	C491.893890,438.233826 499.747009,438.233826 507.952148,438.233826 
	C507.952148,443.121674 507.952148,447.484741 507.952148,452.084900 
	C493.015320,452.084900 478.111755,452.084900 462.465942,452.084900 
	C470.545380,433.618439 478.433746,415.588715 486.506592,397.204529 
z"/>
<path fill="#0B0B0B" opacity="1.000000" stroke="none" 
	d="
M712.139709,377.028076 
	C724.096558,377.028900 735.571228,377.028900 747.448364,377.028900 
	C747.448364,381.746368 747.448364,386.284607 747.448364,391.177429 
	C743.059265,391.177429 738.762634,391.177429 734.116211,391.177429 
	C734.116211,411.603180 734.116211,431.684570 734.116211,452.044098 
	C729.194397,452.044098 724.623718,452.044098 719.519897,452.044098 
	C719.519897,431.872192 719.519897,411.838165 719.519897,391.347687 
	C714.921387,391.347687 710.833557,391.347687 706.414062,391.347687 
	C706.414062,386.514801 706.414062,382.135132 706.414062,377.027252 
	C708.150330,377.027252 709.903870,377.027252 712.139709,377.028076 
z"/>
<path fill="#111111" opacity="1.000000" stroke="none" 
	d="
M169.999390,407.000000 
	C170.697296,408.811218 171.395203,410.622437 172.004181,412.202850 
	C174.183105,411.052216 176.033890,410.074890 178.233978,409.160248 
	C160.966003,433.904236 139.867065,454.026794 109.291862,461.447815 
	C95.634445,464.762634 81.531502,463.248138 67.323891,457.143311 
	C69.564514,457.143311 70.788155,456.902130 71.880760,457.178650 
	C97.446251,463.649506 118.974533,455.274292 138.461227,439.219482 
	C149.615036,430.029968 158.629852,418.978516 167.393799,406.974426 
	C168.732346,406.912659 169.366486,406.956329 170.000305,407.000000 
	C170.000000,407.000000 169.999390,407.000000 169.999390,407.000000 
M168.388748,412.207123 
	C168.786438,412.211212 169.184311,412.219116 169.580734,412.198669 
	C169.591263,412.198120 169.596725,411.746094 169.586349,411.745331 
	C169.189972,411.715332 168.791458,411.713562 168.388748,412.207123 
z"/>
<path fill="#1C1C1C" opacity="1.000000" stroke="none" 
	d="
M236.750702,475.196960 
	C245.815506,487.470856 249.119370,504.954651 244.499786,518.436096 
	C243.600754,510.730652 243.181351,503.981812 241.977768,497.375854 
	C237.209717,471.205750 210.602646,454.498383 185.853271,462.002930 
	C177.687500,464.478973 171.069107,469.383362 165.361832,475.636322 
	C164.319199,476.778687 162.970795,477.641998 161.477859,478.282684 
	C177.524216,449.945648 215.898880,447.981628 236.750702,475.196960 
z"/>
<path fill="#0C0C0C" opacity="1.000000" stroke="none" 
	d="
M168.156311,518.823608 
	C175.834702,518.221558 178.694534,524.144897 182.647858,528.154297 
	C181.975357,530.021729 181.239624,531.692688 180.770462,533.435425 
	C179.202606,539.259521 174.232788,543.066223 168.295166,542.873840 
	C162.956390,542.700928 158.493683,538.766968 157.140427,533.138306 
	C156.790482,531.682739 156.209442,530.282715 155.551193,528.306763 
	C158.825668,524.896423 161.066406,519.146912 168.156311,518.823608 
z"/>
<path fill="#1E1E1E" opacity="1.000000" stroke="none" 
	d="
M792.154480,711.324097 
	C791.255066,719.106262 788.676025,722.188110 782.197388,723.620850 
	C775.266296,725.153625 769.352783,722.643860 766.219116,715.424133 
	C767.734009,716.253601 769.407959,716.884949 770.734131,717.949463 
	C774.827881,721.235840 779.353210,721.550171 783.891113,719.593506 
	C787.577881,718.003784 789.070740,714.788025 788.641724,711.805176 
	C783.427490,712.190125 778.451721,713.216187 773.669800,712.638184 
	C771.206726,712.340454 768.595642,709.548157 766.916199,707.250916 
	C763.270813,702.264465 764.410217,694.568665 768.872742,690.338379 
	C773.923096,685.550781 780.745483,685.518555 787.823181,690.148560 
	C788.944824,689.033691 790.039673,687.945496 792.182983,685.815125 
	C792.182983,695.317261 792.182983,703.104492 792.154480,711.324097 
M769.657715,695.395569 
	C767.403320,701.253845 768.413208,705.925781 772.516357,708.619019 
	C776.671326,711.346375 783.005676,710.723145 786.259644,707.266846 
	C789.602112,703.716492 789.908813,698.143188 786.991394,693.968628 
	C783.090881,688.387390 775.388123,688.735779 769.657715,695.395569 
z"/>
<path fill="#0B0B0B" opacity="1.000000" stroke="none" 
	d="
M213.993423,538.025085 
	C212.463593,535.898621 210.905685,533.791687 209.412125,531.640076 
	C208.010651,529.621155 206.677200,527.555054 205.647598,526.010376 
	C206.494110,524.597900 207.642120,522.688660 208.778671,520.772583 
	C208.859314,520.636719 208.818481,520.429993 208.896454,520.291199 
	C212.583557,513.728271 218.783890,518.000549 223.742798,516.939087 
	C226.518173,516.344971 228.874039,517.199402 229.874603,520.536377 
	C230.512009,522.662231 231.979050,524.539429 232.779510,525.993103 
	C230.933670,529.085815 228.834900,532.602295 226.296509,536.571960 
	C222.111572,539.840149 218.093353,539.417419 213.993423,538.025085 
z"/>
<path fill="#1C1C1C" opacity="1.000000" stroke="none" 
	d="
M643.288818,688.612061 
	C645.454102,690.412048 646.655396,690.388000 646.717834,687.681213 
	C646.779053,685.023193 646.577881,682.346069 646.841614,679.712280 
	C646.948669,678.642761 647.979858,677.665710 648.590576,676.646606 
	C649.137512,676.847046 649.684509,677.047485 650.231445,677.247925 
	C650.231445,688.638550 650.258484,700.029297 650.169373,711.419250 
	C650.163574,712.162170 649.266479,712.898132 648.783997,713.637329 
	C647.810181,712.809509 646.836365,711.981750 646.612793,711.791687 
	C642.037354,712.597168 637.803894,713.967468 633.615967,713.840210 
	C631.187073,713.766418 628.408630,711.703735 626.525879,709.804138 
	C621.838928,705.075256 621.499939,697.571472 625.231506,692.426453 
	C629.471069,686.580994 635.718567,685.139404 643.288818,688.612061 
M635.713318,690.048401 
	C626.995850,692.021118 623.285461,701.216919 628.749390,707.307678 
	C631.874634,710.791443 637.203857,712.107300 640.924683,710.314026 
	C645.536011,708.091370 647.735474,703.580078 646.769714,698.325439 
	C645.888123,693.528625 642.386414,690.680176 635.713318,690.048401 
z"/>
<path fill="#262626" opacity="1.000000" stroke="none" 
	d="
M806.702271,713.387817 
	C799.191345,708.974182 796.424866,702.111328 799.094666,695.221802 
	C801.458313,689.122620 807.808167,685.499207 814.381531,686.924194 
	C816.870300,687.463684 819.151306,688.961548 821.052795,689.810730 
	C822.191772,688.947815 823.276184,688.126221 824.360596,687.304626 
	C824.777649,688.424316 825.535522,689.537964 825.555542,690.664673 
	C825.670410,697.139404 825.688782,703.619019 825.540283,710.092407 
	C825.512146,711.317871 824.585449,712.522705 824.073242,713.737000 
	C823.115723,712.867004 822.158325,711.997070 820.975525,710.922363 
	C817.138000,713.985535 812.395447,715.345154 806.702271,713.387817 
M801.904602,699.646423 
	C801.626892,704.490112 803.588318,708.622681 808.079346,709.895813 
	C811.155823,710.768005 815.300171,710.161255 818.226318,708.715881 
	C822.180969,706.762390 823.509827,700.692810 821.647949,696.356689 
	C819.859009,692.190430 816.506042,689.953491 811.824036,690.030823 
	C806.922974,690.111694 803.802734,692.901917 801.904602,699.646423 
z"/>
<path fill="#1E1E1E" opacity="1.000000" stroke="none" 
	d="
M658.622559,692.743774 
	C664.107483,686.700317 669.739441,685.116821 675.693359,687.690002 
	C680.805359,689.899353 683.529724,694.442017 683.271667,700.870239 
	C675.741089,700.870239 668.176697,700.870239 660.344421,700.870239 
	C660.530029,705.610168 662.473083,708.656677 666.316040,710.226929 
	C670.571228,711.965820 674.357727,710.930298 677.761414,707.813293 
	C678.817505,706.846252 680.459290,706.518799 681.832947,705.898560 
	C681.241943,707.427063 681.024536,709.298828 679.992554,710.422241 
	C676.326294,714.413269 669.372681,715.466309 664.261658,713.136108 
	C659.338928,710.891724 655.974060,705.293030 656.568787,699.728088 
	C656.810791,697.463196 657.783081,695.276367 658.622559,692.743774 
M671.450378,697.808777 
	C674.118896,697.808777 676.787476,697.808777 679.839661,697.808777 
	C677.950073,691.737000 674.291992,689.672974 669.359497,689.997253 
	C664.868652,690.292419 661.845093,692.648682 660.854187,697.807739 
	C664.324707,697.807739 667.410645,697.807739 671.450378,697.808777 
z"/>
<path fill="#1E1E1E" opacity="1.000000" stroke="none" 
	d="
M225.430496,700.980713 
	C225.430954,704.290222 225.574631,707.120605 225.367569,709.925171 
	C225.273453,711.200195 224.485123,712.424011 224.011658,713.671021 
	C223.018372,712.828979 222.025070,711.986938 220.901382,711.034302 
	C212.299286,715.818542 205.730072,715.280945 200.946671,709.139893 
	C196.594864,703.552917 196.892776,696.079651 201.672607,690.929077 
	C206.769730,685.436584 213.727707,685.164734 220.776077,690.123413 
	C221.894974,689.162781 222.994431,688.218750 224.093872,687.274780 
	C224.538956,688.694458 225.271774,690.094727 225.369019,691.537903 
	C225.569336,694.510193 225.430084,697.505371 225.430496,700.980713 
M201.586945,699.667114 
	C202.156525,706.455566 205.295685,710.402161 210.577667,710.970459 
	C216.097687,711.564392 220.989563,708.026550 221.936554,702.755737 
	C223.024841,696.698425 219.726578,691.442078 214.075256,690.227417 
	C208.135178,688.950684 203.490677,692.190491 201.586945,699.667114 
z"/>
<path fill="#242424" opacity="1.000000" stroke="none" 
	d="
M351.443115,688.831055 
	C352.598022,689.162537 353.572571,689.584839 354.216095,689.288391 
	C355.055542,688.901611 355.632660,687.945374 356.322662,687.234131 
	C356.858490,688.289490 357.833801,689.334839 357.858215,690.401917 
	C358.006683,696.892212 358.017456,703.389221 357.874969,709.879639 
	C357.847229,711.142395 356.942047,712.385803 356.441650,713.638184 
	C355.429138,712.782471 354.416595,711.926758 353.325195,711.004395 
	C347.693970,715.287964 340.037750,716.196472 334.266296,710.155701 
	C329.448334,705.112976 328.971710,697.755920 332.966858,692.336426 
	C337.360870,686.375854 343.590088,685.094177 351.443115,688.831055 
M339.863190,709.988708 
	C345.448090,711.952881 350.271729,710.664490 352.961700,706.490112 
	C355.417572,702.679077 354.999115,696.930603 352.019196,693.541321 
	C348.020630,688.993652 341.254944,688.730530 337.066406,692.959900 
	C332.194489,697.879333 333.042725,704.590149 339.863190,709.988708 
z"/>
<path fill="#202020" opacity="1.000000" stroke="none" 
	d="
M301.053223,690.017578 
	C302.100739,688.744141 302.886597,687.791565 303.672424,686.838989 
	C304.103699,687.073425 304.534943,687.307861 304.966217,687.542358 
	C304.966217,695.500366 305.002869,703.458862 304.906219,711.415771 
	C304.897125,712.163818 304.047974,712.901672 303.588867,713.644226 
	C302.586823,712.844299 301.584778,712.044434 300.448242,711.137207 
	C298.427460,711.989136 296.003174,713.478699 293.382721,714.022095 
	C287.300049,715.283203 281.612793,712.248291 278.891846,706.789185 
	C276.045868,701.079163 277.359619,694.222595 282.119232,689.945374 
	C286.595642,685.922607 292.863434,685.469910 298.289276,688.781067 
	C299.127838,689.292908 299.957672,689.819031 301.053223,690.017578 
M281.449493,697.367798 
	C280.250702,702.000061 281.118378,706.463257 285.284851,708.692383 
	C288.125183,710.212036 292.262848,710.728577 295.390533,709.955078 
	C300.034210,708.806641 301.943939,704.620850 301.625549,699.846313 
	C301.282562,694.703064 297.980621,691.021606 293.275085,690.128601 
	C288.434570,689.209961 284.837891,691.246338 281.449493,697.367798 
z"/>
<path fill="#202020" opacity="1.000000" stroke="none" 
	d="
M723.040527,704.033997 
	C723.039368,701.898193 723.069641,700.234009 723.032898,698.571228 
	C722.907288,692.890808 721.032043,690.286560 716.847717,689.931519 
	C712.253113,689.541565 708.116760,692.707581 707.497559,697.726379 
	C706.991028,701.831909 707.323853,706.034912 707.026184,710.176147 
	C706.939819,711.377747 705.963318,712.515259 705.394836,713.682190 
	C704.783447,712.557739 703.656677,711.440308 703.641418,710.307800 
	C703.507019,700.328369 703.503601,690.345215 703.659668,680.366272 
	C703.679138,679.122559 704.853577,677.896973 705.492920,676.662964 
	C706.074463,676.898254 706.656067,677.133484 707.237610,677.368713 
	C707.237610,681.432068 707.237610,685.495483 707.237610,689.425354 
	C708.063049,689.628723 708.514038,689.883850 708.679321,689.759460 
	C712.661377,686.761536 716.952637,685.280945 721.635437,687.844177 
	C726.463989,690.487366 726.674683,695.262451 726.658081,700.032043 
	C726.645386,703.691833 726.767456,707.356384 726.598999,711.008179 
	C726.557251,711.912781 725.620911,712.776001 725.095703,713.658203 
	C724.414307,712.770203 723.281311,711.946350 723.144043,710.980957 
	C722.842529,708.860718 723.044617,706.668884 723.040527,704.033997 
z"/>
<path fill="#1E1E1E" opacity="1.000000" stroke="none" 
	d="
M534.948120,686.975159 
	C537.348083,688.122559 539.370850,689.200378 541.214111,690.182556 
	C542.167725,689.270081 543.216919,688.266235 544.266052,687.262390 
	C544.697754,688.556091 545.475647,689.842712 545.502502,691.144775 
	C545.632751,697.462036 545.645630,703.785583 545.488098,710.101624 
	C545.458191,711.299805 544.654480,713.297302 543.881897,713.470276 
	C542.662231,713.743347 541.166748,712.784546 539.009827,712.100159 
	C533.656494,715.281189 527.587036,715.386536 522.694336,710.982849 
	C518.255554,706.987732 516.777283,700.343262 519.141235,695.012939 
	C521.923462,688.739563 526.792236,686.181274 534.948120,686.975159 
M523.628113,706.593872 
	C528.513489,711.716187 533.847595,712.513733 538.452637,708.810364 
	C542.552246,705.513367 543.510498,698.873352 540.522705,694.466553 
	C537.645020,690.222229 531.821838,688.722717 527.338806,691.071716 
	C521.853699,693.945801 520.325317,699.398499 523.628113,706.593872 
z"/>
<path fill="#1E1E1E" opacity="1.000000" stroke="none" 
	d="
M739.445801,688.299316 
	C747.316895,685.218445 753.465149,686.689819 757.473633,692.366882 
	C761.122437,697.534607 760.834412,704.755310 756.793152,709.428833 
	C751.740051,715.272522 742.687805,716.029724 737.247375,711.063721 
	C731.373901,705.702332 730.840881,696.750000 736.107239,691.042786 
	C736.995728,690.079895 738.103821,689.319702 739.445801,688.299316 
M754.469543,694.362366 
	C753.631287,693.564270 752.874084,692.652405 751.940857,691.987549 
	C747.475464,688.806274 742.215210,689.481018 738.578613,693.628723 
	C735.146057,697.543884 735.227905,703.919739 738.760254,707.775635 
	C742.212585,711.544189 748.139771,712.054321 752.356689,708.945984 
	C756.445190,705.932129 757.324707,701.148132 754.469543,694.362366 
z"/>
<path fill="#1C1C1C" opacity="1.000000" stroke="none" 
	d="
M584.807495,690.173462 
	C590.821350,697.656067 590.511902,705.820068 584.286499,711.203796 
	C578.777100,715.968262 569.961792,715.276855 565.043335,709.694458 
	C560.625916,704.680725 560.584290,696.528381 564.950134,691.439026 
	C569.954773,685.605042 577.337830,685.034363 584.807495,690.173462 
M583.028015,707.450623 
	C588.811157,700.898926 584.435425,691.203186 576.825439,690.116577 
	C572.240662,689.461975 567.930115,692.023010 566.042297,696.463379 
	C564.225403,700.736938 565.422791,705.795532 568.938477,708.698608 
	C572.917603,711.984558 577.470520,711.758667 583.028015,707.450623 
z"/>
<path fill="#1E1E1E" opacity="1.000000" stroke="none" 
	d="
M436.903931,703.913025 
	C433.331177,712.223999 428.742432,715.093750 421.099762,714.134460 
	C415.534332,713.435913 410.833221,708.769348 409.978149,702.993347 
	C409.097504,697.044861 410.891968,692.128662 416.034332,688.800232 
	C420.789673,685.722290 425.899475,685.759399 430.631805,688.577637 
	C436.219696,691.905273 438.051605,697.195007 436.903931,703.913025 
M413.444702,698.976929 
	C413.446899,706.010315 416.499695,710.219604 422.114594,710.931152 
	C427.377625,711.598145 432.046600,708.391479 433.353607,703.212280 
	C434.724457,697.780151 431.612671,691.972229 426.503479,690.427124 
	C420.780243,688.696350 416.202881,691.463684 413.444702,698.976929 
z"/>
<path fill="#242424" opacity="1.000000" stroke="none" 
	d="
M462.907715,709.645020 
	C462.904694,705.693115 462.937195,702.193298 462.890625,698.694580 
	C462.816071,693.091431 460.863647,690.330200 456.813507,689.989075 
	C452.090851,689.591248 447.967621,692.642700 447.364441,697.621887 
	C446.866211,701.734863 447.217438,705.944458 446.932220,710.093384 
	C446.847473,711.326477 445.883087,712.499023 445.321716,713.699280 
	C444.645569,712.463257 443.425171,711.244629 443.385040,709.988281 
	C443.183044,703.662903 443.215332,697.325989 443.349213,690.997131 
	C443.375916,689.737244 444.204865,688.494263 444.663879,687.243530 
	C445.740875,688.098938 446.817841,688.954407 448.074219,689.952393 
	C449.427948,689.201050 451.180969,687.875305 453.156250,687.196289 
	C459.703644,684.945679 465.471832,688.504028 466.127655,695.420898 
	C466.597839,700.379944 466.481323,705.408203 466.358459,710.399048 
	C466.331207,711.504150 465.175171,712.581421 464.538879,713.671448 
	C463.995148,712.480164 463.451416,711.288818 462.907715,709.645020 
z"/>
<path fill="#202020" opacity="1.000000" stroke="none" 
	d="
M383.270752,706.370361 
	C388.775970,712.042664 393.995850,712.536499 399.912750,708.454224 
	C400.984741,707.714478 402.460938,707.560669 403.923218,707.689026 
	C400.357666,713.729675 394.103943,715.699280 387.484711,713.630127 
	C381.828064,711.861877 377.946747,706.837341 377.821899,701.121277 
	C377.685822,694.890991 381.056580,689.836365 386.854187,687.577271 
	C393.195984,685.106079 399.845642,686.885925 403.877655,693.564575 
	C402.521912,693.196716 400.953827,693.146179 399.847290,692.405823 
	C395.150116,689.262878 389.528442,689.093933 385.493317,692.223145 
	C381.182556,695.566162 380.429901,699.833374 383.270752,706.370361 
z"/>
<path fill="#202020" opacity="1.000000" stroke="none" 
	d="
M508.172668,708.407166 
	C509.682739,707.894104 510.901276,707.623962 513.346802,707.081848 
	C508.512451,713.794250 502.261688,715.740723 495.634796,713.652283 
	C489.933258,711.855469 485.805756,706.234436 485.979706,700.503479 
	C486.169128,694.262451 490.269775,688.894958 496.177124,687.155518 
	C502.677063,685.241577 508.769897,687.258667 511.787628,693.813416 
	C510.278198,693.167419 508.660126,692.696899 507.279785,691.842346 
	C503.224945,689.332092 499.082336,689.226196 494.986816,691.407532 
	C491.296722,693.372864 489.518463,696.675049 489.662079,700.876343 
	C489.964630,709.725952 499.422272,713.746887 508.172668,708.407166 
z"/>
<path fill="#1C1C1C" opacity="1.000000" stroke="none" 
	d="
M188.421387,697.361938 
	C187.954971,692.799561 186.298538,689.902344 181.630524,689.884094 
	C177.236099,689.866882 173.342072,693.191284 172.899567,697.854980 
	C172.492706,702.143127 172.702805,706.487305 172.394699,710.789185 
	C172.323837,711.778503 171.245728,712.695679 170.631134,713.646057 
	C170.076096,712.652954 169.057510,711.668091 169.039810,710.665527 
	C168.905106,703.037048 168.966049,695.405090 168.966049,686.284485 
	C171.018875,687.817932 172.210770,688.708252 173.843063,689.927551 
	C174.442276,689.534424 175.703751,688.547424 177.099899,687.818237 
	C183.324142,684.567688 190.219879,687.414368 191.290039,694.277039 
	C192.177628,699.968933 191.873322,705.854797 191.933426,711.656494 
	C191.940369,712.326721 190.899185,713.007751 190.343933,713.683777 
	C189.748032,712.882202 188.670410,712.100403 188.636414,711.275696 
	C188.451645,706.793640 188.524384,702.301025 188.421387,697.361938 
z"/>
<path fill="#1E1E1E" opacity="1.000000" stroke="none" 
	d="
M245.849609,696.958618 
	C251.302887,684.955444 264.760376,682.859558 271.762238,692.552063 
	C271.582886,692.992493 271.403534,693.432922 271.224182,693.873413 
	C269.697266,693.234070 268.050415,692.786438 266.665588,691.920044 
	C262.254456,689.160278 256.320312,689.302551 252.701935,692.428284 
	C248.965088,695.656433 247.937531,700.638855 250.080948,705.136658 
	C252.954041,711.165588 260.833374,712.884094 266.781067,708.932373 
	C268.072021,708.074585 269.775238,707.837402 271.480347,707.916016 
	C267.132233,714.154846 259.811829,715.923218 253.378845,713.058533 
	C247.540665,710.458679 244.720215,704.631165 245.849609,696.958618 
z"/>
<path fill="#202020" opacity="1.000000" stroke="none" 
	d="
M138.467316,695.081665 
	C138.473999,692.949097 138.210739,691.221069 138.581070,689.641541 
	C138.825455,688.599121 139.980896,687.770325 140.728409,686.845947 
	C141.187958,687.090210 141.647491,687.334473 142.107040,687.578735 
	C142.107040,692.544739 141.953598,697.516663 142.147537,702.475098 
	C142.368881,708.133972 145.438278,711.099060 150.442795,710.912964 
	C155.042587,710.741943 157.715958,707.662537 157.884155,702.154175 
	C158.001007,698.327759 157.821671,694.487610 158.066040,690.672302 
	C158.142761,689.474731 159.166367,688.337830 159.756531,687.173096 
	C160.398926,688.268188 161.583893,689.360046 161.590622,690.458984 
	C161.621109,695.435852 161.660629,700.457214 161.047867,705.381836 
	C160.320282,711.229126 156.380493,714.194946 150.330078,714.274902 
	C143.875381,714.360168 139.885162,711.447632 138.963150,705.492004 
	C138.458176,702.230347 138.610580,698.866882 138.467316,695.081665 
z"/>
<path fill="#202020" opacity="1.000000" stroke="none" 
	d="
M317.747772,690.032898 
	C313.435638,693.177490 313.409058,694.859070 317.302673,697.452454 
	C319.097778,698.648132 321.577667,699.271545 322.716553,700.882874 
	C324.188507,702.965393 325.701263,706.014221 325.214905,708.207581 
	C324.722046,710.430237 322.046906,713.322876 319.905762,713.736084 
	C317.191437,714.259766 314.024170,712.661682 311.141693,711.708313 
	C310.878693,711.621338 311.264587,709.572327 311.352966,708.383362 
	C313.753113,709.435364 315.404083,710.773804 316.966980,710.677795 
	C318.658813,710.573853 321.081787,709.494873 321.674591,708.166687 
	C322.216309,706.952942 321.055176,704.613953 320.049255,703.191956 
	C319.264404,702.082458 317.224854,701.896362 316.343811,700.811768 
	C314.383209,698.398193 311.917206,695.842346 311.394043,693.022339 
	C311.082550,691.343262 313.654358,688.150330 315.658844,687.235962 
	C319.208313,685.617004 322.779907,686.822693 324.945709,691.619812 
	C322.693115,691.081543 320.440521,690.543274 317.747772,690.032898 
z"/>
<path fill="#111111" opacity="1.000000" stroke="none" 
	d="
M835.921814,689.259888 
	C838.810974,688.325378 841.322937,687.229126 843.834900,686.132874 
	C844.643127,687.154114 845.451355,688.175415 846.259583,689.196655 
	C845.026489,689.504089 843.793335,690.073853 842.560242,690.073792 
	C837.101135,690.073425 836.076355,693.985291 835.661072,698.066833 
	C835.241760,702.188660 835.462708,706.372192 835.183655,710.513977 
	C835.110962,711.592773 834.220093,712.616516 833.705078,713.665588 
	C833.076843,712.582031 831.931763,711.511292 831.904724,710.412903 
	C831.736755,703.599243 831.768982,696.778564 831.880249,689.962585 
	C831.895203,689.048340 832.730408,688.147522 833.185791,687.240479 
	C833.972107,687.859680 834.758362,688.478882 835.921814,689.259888 
z"/>
<path fill="#262626" opacity="1.000000" stroke="none" 
	d="
M593.952637,697.053223 
	C593.952942,694.578491 593.824097,692.576904 594.032471,690.611145 
	C594.153320,689.471497 594.816345,688.389282 595.235352,687.281250 
	C596.388794,687.780090 597.542236,688.278931 598.289917,688.602295 
	C601.105835,687.811218 603.772156,687.062134 606.438538,686.313049 
	C606.727661,686.824707 607.016846,687.336365 607.305969,687.848022 
	C606.545837,688.606750 605.804443,690.000366 605.022644,690.023254 
	C599.040466,690.199036 598.263855,694.432190 597.953918,698.899597 
	C597.690857,702.691650 597.912964,706.518005 597.631409,710.307678 
	C597.543091,711.496643 596.517090,712.615906 595.920227,713.767090 
	C595.270325,712.664917 594.118774,711.588867 594.059875,710.455933 
	C593.836487,706.161072 593.966858,701.847778 593.952637,697.053223 
z"/>
<path fill="#0C0C0C" opacity="1.000000" stroke="none" 
	d="
M554.236206,713.608521 
	C553.429138,712.623535 552.702942,711.644653 552.693481,710.658875 
	C552.596985,700.549438 552.560486,690.438232 552.685059,680.329651 
	C552.698486,679.234436 553.831665,678.153015 554.445435,677.065125 
	C554.972839,678.050842 555.948303,679.031799 555.958679,680.022949 
	C556.066101,690.298462 556.052673,700.575867 555.953796,710.851685 
	C555.944946,711.775696 555.104187,712.691711 554.236206,713.608521 
z"/>
<path fill="#262626" opacity="1.000000" stroke="none" 
	d="
M886.684082,401.578613 
	C887.086914,400.335785 887.680298,399.375549 888.420776,397.995544 
	C896.671326,403.506287 904.774902,409.436798 912.878418,415.367340 
	C903.297791,412.596497 894.960632,407.469330 886.684082,401.578613 
z"/>
<path fill="#E5E5E5" opacity="1.000000" stroke="none" 
	d="
M213.823578,538.278687 
	C218.093353,539.417419 222.111572,539.840149 226.204834,536.926880 
	C226.920853,537.073486 227.288895,537.318359 227.826813,537.854004 
	C223.304703,541.281677 218.573105,544.059875 212.846283,539.492065 
	C212.970322,538.971558 213.312027,538.751953 213.823578,538.278687 
z"/>
<path fill="#262626" opacity="1.000000" stroke="none" 
	d="
M112.823517,502.599365 
	C112.465660,503.124329 112.187607,503.170258 111.697250,503.117126 
	C111.492271,500.135620 111.492271,497.208923 111.492271,494.282257 
	C111.838295,494.259430 112.184311,494.236633 112.530334,494.213806 
	C112.657104,496.864105 112.783867,499.514374 112.823517,502.599365 
z"/>
<path fill="#111111" opacity="1.000000" stroke="none" 
	d="
M180.576294,382.856995 
	C181.142700,384.765564 181.437454,386.872894 181.842514,389.768860 
	C180.056290,388.817780 179.367416,388.450989 178.377075,388.044495 
	C178.818619,386.355133 179.561615,384.705444 180.576294,382.856995 
z"/>
<path fill="#111111" opacity="1.000000" stroke="none" 
	d="
M189.332123,392.977905 
	C189.491776,391.520355 185.730728,388.241241 191.234894,388.746063 
	C190.924759,390.264526 190.268631,391.545685 189.332123,392.977905 
z"/>
<path fill="#111111" opacity="1.000000" stroke="none" 
	d="
M169.426483,403.060364 
	C169.966187,404.147949 170.237167,405.402771 170.253769,406.828796 
	C169.999390,407.000000 170.000000,407.000000 169.792175,406.732971 
	C168.937210,406.304565 168.290054,406.143158 167.642914,405.981720 
	C168.147873,405.063690 168.652832,404.145691 169.426483,403.060364 
z"/>
<path fill="#111111" opacity="1.000000" stroke="none" 
	d="
M177.548218,388.767151 
	C178.465332,389.626434 179.112289,390.683777 180.043167,392.205109 
	C178.694382,392.205109 177.606110,392.205109 176.265762,392.103943 
	C176.435150,390.990204 176.856598,389.977692 177.548218,388.767151 
z"/>
<path fill="#111111" opacity="1.000000" stroke="none" 
	d="
M200.126343,372.063141 
	C199.427139,371.734009 198.943024,371.204926 198.458923,370.675873 
	C199.188843,370.161865 199.918762,369.647858 201.037918,369.149597 
	C201.065231,370.064667 200.703323,370.963928 200.126343,372.063141 
z"/>
<path fill="#111111" opacity="1.000000" stroke="none" 
	d="
M192.064926,388.231171 
	C192.133514,387.354156 192.438416,386.275146 193.169373,385.209351 
	C193.164047,386.158081 192.732651,387.093628 192.064926,388.231171 
z"/>
<path fill="#111111" opacity="1.000000" stroke="none" 
	d="
M197.579025,377.497437 
	C197.625443,376.538330 197.945068,375.351959 198.659897,374.084290 
	C198.654144,375.092102 198.253204,376.181152 197.579025,377.497437 
z"/>
<path fill="#111111" opacity="1.000000" stroke="none" 
	d="
M175.550995,392.643555 
	C175.526642,393.269745 175.240784,394.060028 174.621872,394.932495 
	C174.622375,394.279022 174.955948,393.543335 175.550995,392.643555 
z"/>
<path fill="#262626" opacity="1.000000" stroke="none" 
	d="
M888.246948,397.169403 
	C887.648560,397.074158 886.904480,396.718597 886.154907,395.986267 
	C886.800049,396.042664 887.450623,396.475861 888.246948,397.169403 
z"/>
<path fill="#262626" opacity="1.000000" stroke="none" 
	d="
M883.738403,399.476990 
	C884.367981,399.551239 885.139099,399.904297 885.958496,400.610321 
	C885.297852,400.560760 884.588867,400.158264 883.738403,399.476990 
z"/>
<path fill="#111111" opacity="1.000000" stroke="none" 
	d="
M183.482666,402.403137 
	C183.538681,401.763458 183.869812,400.947845 184.556671,400.051636 
	C184.527512,400.723114 184.142654,401.475128 183.482666,402.403137 
z"/>
<path fill="#080808" opacity="1.000000" stroke="none" 
	d="
M167.444733,406.102722 
	C168.290054,406.143158 168.937210,406.304565 169.792480,406.733002 
	C169.366486,406.956329 168.732346,406.912659 167.628937,406.774445 
	C167.159653,406.679932 167.246567,406.223724 167.444733,406.102722 
z"/>
<path fill="#111111" opacity="1.000000" stroke="none" 
	d="
M174.082123,403.518219 
	C174.120789,402.816437 174.203720,402.376526 174.286667,401.936584 
	C174.457306,401.939270 174.627960,401.941956 174.798599,401.944641 
	C174.798599,402.582642 174.812271,403.221283 174.783371,403.857971 
	C174.779190,403.949921 174.546844,404.121490 174.461914,404.098877 
	C174.331085,404.064056 174.236404,403.893219 174.082123,403.518219 
z"/>
<path fill="#111111" opacity="1.000000" stroke="none" 
	d="
M191.530457,362.547424 
	C191.476593,362.579468 191.584320,362.515411 191.530457,362.547424 
z"/>
<path fill="#111111" opacity="1.000000" stroke="none" 
	d="
M190.467850,368.449524 
	C190.523041,368.416107 190.412659,368.482941 190.467850,368.449524 
z"/>
<path fill="#111111" opacity="1.000000" stroke="none" 
	d="
M195.449036,369.536865 
	C195.413788,369.478729 195.484283,369.594971 195.449036,369.536865 
z"/>
<path fill="#F3F3F3" opacity="1.000000" stroke="none" 
	d="
M193.994095,609.479370 
	C193.725510,606.289307 193.209366,603.251648 192.416702,600.287842 
	C189.158005,588.103821 185.794601,575.947876 182.540222,563.762756 
	C182.261993,562.721008 182.503372,561.540527 183.316650,560.163940 
	C184.988174,565.023682 186.602478,569.904114 188.352676,574.735291 
	C189.403183,577.635132 190.850082,579.950073 194.555649,580.281799 
	C198.661026,580.649231 201.315643,579.649780 202.343079,575.343933 
	C203.560928,570.239990 205.013077,565.191895 206.454773,559.777466 
	C206.454773,581.960327 206.454773,603.681458 206.454773,625.727905 
	C197.527252,625.727905 189.283615,625.727905 180.448151,625.727905 
	C181.120285,620.539917 181.788254,615.384033 182.529083,609.665649 
	C186.400192,609.665649 190.009796,609.665649 193.994095,609.479370 
z"/>
<path fill="#E5E5E5" opacity="1.000000" stroke="none" 
	d="
M216.856934,601.982788 
	C217.177246,595.736877 217.492157,589.985474 217.807068,584.234070 
	C218.520493,584.220642 219.233902,584.207214 219.947327,584.193787 
	C221.764755,597.873596 220.666138,611.751099 221.831482,625.795776 
	C219.818161,625.795776 218.247269,625.795776 216.851501,625.795776 
	C216.851501,618.002686 216.851501,610.239990 216.856934,601.982788 
z"/>
<path fill="#E5E5E5" opacity="1.000000" stroke="none" 
	d="
M168.066238,616.120483 
	C168.078445,613.837708 168.078445,612.021362 168.078445,610.205017 
	C168.579025,610.217163 169.079590,610.229309 169.580170,610.241455 
	C169.580170,615.434326 169.580170,620.627197 169.580170,625.820068 
	C169.071457,625.851074 168.562744,625.882141 168.054031,625.913147 
	C168.054031,622.804382 168.054031,619.695618 168.066238,616.120483 
z"/>
<path fill="#FDFDFD" opacity="1.000000" stroke="none" 
	d="
M153.542938,564.298950 
	C153.956100,563.759216 154.321213,563.657349 154.686325,563.555420 
	C154.688965,563.966125 154.691605,564.376892 154.694244,564.787598 
	C154.294464,564.770691 153.894699,564.753784 153.542938,564.298950 
z"/>
<path fill="#F3F3F3" opacity="1.000000" stroke="none" 
	d="
M629.969604,400.606110 
	C626.714905,408.587708 620.000671,405.637817 614.077087,406.625244 
	C614.077087,401.301086 614.077087,396.437286 614.077087,391.569427 
	C624.063049,389.778168 630.964600,392.227783 629.969604,400.606110 
z"/>
<path fill="#EDEDED" opacity="1.000000" stroke="none" 
	d="
M432.100098,287.875671 
	C433.242493,291.004242 434.267181,293.759674 435.432190,296.892365 
	C428.643738,296.892365 422.440033,296.892365 415.660217,296.892365 
	C418.935303,288.471008 422.044189,280.476929 425.564514,271.424957 
	C427.932526,277.357117 429.957489,282.429810 432.100098,287.875671 
z"/>
<path fill="#EDEDED" opacity="1.000000" stroke="none" 
	d="
M561.819092,297.155945 
	C556.931213,297.154694 552.519104,297.154694 547.383789,297.154694 
	C550.778809,288.495239 553.893921,280.549591 557.492065,271.371826 
	C561.048523,280.422852 564.145996,288.305695 567.492615,296.822784 
	C565.377930,296.958832 563.836426,297.057983 561.819092,297.155945 
z"/>
<path fill="#EDEDED" opacity="1.000000" stroke="none" 
	d="
M558.458862,415.516541 
	C559.397400,418.019043 560.189148,420.162048 561.125244,422.695618 
	C554.407227,422.695618 548.220581,422.695618 541.249084,422.695618 
	C544.546753,414.182098 547.673340,406.110229 551.194397,397.019958 
	C553.866028,403.827759 556.089050,409.492401 558.458862,415.516541 
z"/>
<path fill="#EDEDED" opacity="1.000000" stroke="none" 
	d="
M417.177734,422.907837 
	C415.217804,422.907471 413.730652,422.907471 411.371368,422.907471 
	C413.102112,418.366821 414.637390,414.264526 416.229034,410.184204 
	C417.790558,406.181183 419.409332,402.200470 421.454895,397.078339 
	C424.937500,406.044281 428.039673,414.030792 431.487885,422.908203 
	C426.410004,422.908203 422.030243,422.908203 417.177734,422.907837 
z"/>
<path fill="#080808" opacity="1.000000" stroke="none" 
	d="
M168.390991,411.957581 
	C168.791458,411.713562 169.189972,411.715332 169.586349,411.745331 
	C169.596725,411.746094 169.591263,412.198120 169.580734,412.198669 
	C169.184311,412.219116 168.786438,412.211212 168.390991,411.957581 
z"/>
<path fill="#F3F3F3" opacity="1.000000" stroke="none" 
	d="
M769.849609,695.065430 
	C775.388123,688.735779 783.090881,688.387390 786.991394,693.968628 
	C789.908813,698.143188 789.602112,703.716492 786.259644,707.266846 
	C783.005676,710.723145 776.671326,711.346375 772.516357,708.619019 
	C768.413208,705.925781 767.403320,701.253845 769.849609,695.065430 
z"/>
<path fill="#F3F3F3" opacity="1.000000" stroke="none" 
	d="
M636.115112,690.016968 
	C642.386414,690.680176 645.888123,693.528625 646.769714,698.325439 
	C647.735474,703.580078 645.536011,708.091370 640.924683,710.314026 
	C637.203857,712.107300 631.874634,710.791443 628.749390,707.307678 
	C623.285461,701.216919 626.995850,692.021118 636.115112,690.016968 
z"/>
<path fill="#F3F3F3" opacity="1.000000" stroke="none" 
	d="
M801.938965,699.241882 
	C803.802734,692.901917 806.922974,690.111694 811.824036,690.030823 
	C816.506042,689.953491 819.859009,692.190430 821.647949,696.356689 
	C823.509827,700.692810 822.180969,706.762390 818.226318,708.715881 
	C815.300171,710.161255 811.155823,710.768005 808.079346,709.895813 
	C803.588318,708.622681 801.626892,704.490112 801.938965,699.241882 
z"/>
<path fill="#E5E5E5" opacity="1.000000" stroke="none" 
	d="
M670.973511,697.808228 
	C667.410645,697.807739 664.324707,697.807739 660.854187,697.807739 
	C661.845093,692.648682 664.868652,690.292419 669.359497,689.997253 
	C674.291992,689.672974 677.950073,691.737000 679.839661,697.808777 
	C676.787476,697.808777 674.118896,697.808777 670.973511,697.808228 
z"/>
<path fill="#F3F3F3" opacity="1.000000" stroke="none" 
	d="
M201.661652,699.250854 
	C203.490677,692.190491 208.135178,688.950684 214.075256,690.227417 
	C219.726578,691.442078 223.024841,696.698425 221.936554,702.755737 
	C220.989563,708.026550 216.097687,711.564392 210.577667,710.970459 
	C205.295685,710.402161 202.156525,706.455566 201.661652,699.250854 
z"/>
<path fill="#F3F3F3" opacity="1.000000" stroke="none" 
	d="
M339.517334,709.801758 
	C333.042725,704.590149 332.194489,697.879333 337.066406,692.959900 
	C341.254944,688.730530 348.020630,688.993652 352.019196,693.541321 
	C354.999115,696.930603 355.417572,702.679077 352.961700,706.490112 
	C350.271729,710.664490 345.448090,711.952881 339.517334,709.801758 
z"/>
<path fill="#F3F3F3" opacity="1.000000" stroke="none" 
	d="
M281.607056,697.006775 
	C284.837891,691.246338 288.434570,689.209961 293.275085,690.128601 
	C297.980621,691.021606 301.282562,694.703064 301.625549,699.846313 
	C301.943939,704.620850 300.034210,708.806641 295.390533,709.955078 
	C292.262848,710.728577 288.125183,710.212036 285.284851,708.692383 
	C281.118378,706.463257 280.250702,702.000061 281.607056,697.006775 
z"/>
<path fill="#F3F3F3" opacity="1.000000" stroke="none" 
	d="
M523.399414,706.268066 
	C520.325317,699.398499 521.853699,693.945801 527.338806,691.071716 
	C531.821838,688.722717 537.645020,690.222229 540.522705,694.466553 
	C543.510498,698.873352 542.552246,705.513367 538.452637,708.810364 
	C533.847595,712.513733 528.513489,711.716187 523.399414,706.268066 
z"/>
<path fill="#F3F3F3" opacity="1.000000" stroke="none" 
	d="
M754.692871,694.692810 
	C757.324707,701.148132 756.445190,705.932129 752.356689,708.945984 
	C748.139771,712.054321 742.212585,711.544189 738.760254,707.775635 
	C735.227905,703.919739 735.146057,697.543884 738.578613,693.628723 
	C742.215210,689.481018 747.475464,688.806274 751.940857,691.987549 
	C752.874084,692.652405 753.631287,693.564270 754.692871,694.692810 
z"/>
<path fill="#F3F3F3" opacity="1.000000" stroke="none" 
	d="
M582.777588,707.737488 
	C577.470520,711.758667 572.917603,711.984558 568.938477,708.698608 
	C565.422791,705.795532 564.225403,700.736938 566.042297,696.463379 
	C567.930115,692.023010 572.240662,689.461975 576.825439,690.116577 
	C584.435425,691.203186 588.811157,700.898926 582.777588,707.737488 
z"/>
<path fill="#F3F3F3" opacity="1.000000" stroke="none" 
	d="
M413.523560,698.601807 
	C416.202881,691.463684 420.780243,688.696350 426.503479,690.427124 
	C431.612671,691.972229 434.724457,697.780151 433.353607,703.212280 
	C432.046600,708.391479 427.377625,711.598145 422.114594,710.931152 
	C416.499695,710.219604 413.446899,706.010315 413.523560,698.601807 
z"/>
</svg>